<svg version="1.1" id="Dango" xmlns="http://www.w3.org/2000/svg" x="0" y="0" viewBox="0 0 1701.4 836.4" style="enable-background:new 0 0 1701.4 836.4" xml:space="preserve"><style>.st2{fill:#ec7920}.st8{fill:#f4cf8b}.st10{fill:#572c7e}.st16{fill:#1b2b70}.st19{fill:#111}.st20{fill:#fff}</style><linearGradient id="SVGID_1_" gradientUnits="userSpaceOnUse" x1="0" y1="377.517" x2="1701.379" y2="377.517"><stop offset="0" style="stop-color:#fe4f50"/><stop offset="1" style="stop-color:#ffb471"/></linearGradient><path style="fill:url(#SVGID_1_)" d="M1701.4 0 1523 406.6l85.8-96.6-66.7 270.7L0 755l100.2-426 398.5-176.2-19.1 74.3 432.1-126.7z"/><path d="M421.1 395.8c-2-4-4.3-7.9-6.8-11.6C393.8 355 299 209 419.5 171.9c134.1-41.2 233.9 95.4 233.9 95.4s46.3-57.7 102.3-41.5c57.5 15.3 94.9 54.9 94.9 54.9s-20-4 19.1-25.4 59 10.8 59 10.8 25-27.6 68.3-25c43.3 2.6 28.8 155.4 28.8 155.4-3.1-52.4 28.2-115.8 48.7-151.2 9.9-17.1 26.7-29 46-32.7 20.6-3.9 28.3-6.9 52.3-12.4 43.8-10.1 88.8 15.7 88.8 15.7l9.5-1.6c16.9-21.7 49.6-32.5 76.9-36 67.3 2.1 101.8 29.4 111.2 52.2 17.5 42.4 10.9 70.8 3.4 88.4-6.3 14.7-15.7 31.6-29.8 39.1l-7.5 1.9 39.4-9.8 2.1 16.8 3.3 33.9c-42.1 43.8-250.8 133.6-250.8 133.6s14.4-2.3-11.1 89.3c-29.1 104.5-63.3 133-84.5 148.2-6.4 4.6-12.4 9.6-18.2 14.9-15 13.8-49.6 40-102.6 48.3-73 11.5-243.1-58.4-218.1-134.6 25-76.2 47.1-20.3 47.1-20.3 22.5 41.8 50.9 56 50.9 56 76.2 38.6 134.6 16.7 134.6 16.7 49.4-18.3 124.8-127 116.6-169.8 3.4-8.3 6.5-23.9 3-31.2-2.1-4.4-18.7 7.4-23.2 5.8l-11.9 2.8s-291.5 61.3-475.1 71.6-323.5-82.6-323.5-82.6c-54.1-27.7-101.5-128.9-101.5-128.9l-34.3 19.8-26.7 4.3 90.1-229.3L349.7 386l11.1 15.7c17 21.9-3.5 19.3-13.6 18.4l-33.6-4.5 15.9 17.9c18.4 15.6 53.1 47.6 76.3 41.2l20.9-7.8c18-9.1 18.5-36.1 9-53.8l-14.6-17.3z"/><path d="M1448.9 366.5S463.6 719.7 273.2 394l46.8 4.1-86.3-170L159 428.2l50.9-21.6s41.4 215.3 487.3 186.1c521.2-34.1 758.5-200.4 758.5-200.4l-6.8-25.8z" style="fill:#ffde82"/><path class="st2" d="M795.4 477.4c4.8-12.2 12.9-12.5 19.8-15.1 50.9-19.6 73.5-8.5 90.7 42.7 7.4 21.9-1.5 36.7-17.6 48.3-10.5 7.5-21 5.5-27.5-7.5-23.5-47.4-23.6-47.4-65.4-68.4z"/><path d="M547.6 613.3C533.8 585 537 553 499.9 568c-14.6 5.9-27.5-10.6-26.3-28 1.2-17.5 16.3-18.9 29.5-17.7 21.6 1.9 50.3-11.5 63.3 9.2 14.6 23.2-1.3 48.4-18.8 81.8z" style="fill:#504eaa"/><path d="M737.5 522.8c-25.2.8-49.3 5.4-66.3 26.6-7.8-11.1-7.4-20.4-2.6-24.9 19.1-18.3 33.6-37.8 35.4-65.9.9-14.1 11.5-25 27.4-19.7 14 4.7 11.4 18 7 28.4-6.6 15.6-16.5 30.3-.3 45.8l-.4 4.9-.2 4.8z" style="fill:#cf0a84"/><path d="M793.2 88.9c-.2 15 20 35.2-12.6 41.9-13.3 2.7-17.5 24.7-35.9 21.4 3.6-47 12-59.8 44.2-67.4 1.5 1.4 2.9 2.7 4.3 4.1z" style="fill:#00a551"/><path d="M1299.5 59.6c12.7-1.9 23.5-7.8 32.9-16.3 4.4 3.2 8.9 6.5 13.4 9.7 2 6.2 4.1 12.4 6.1 18.6.1 7.8.2 15.7.2 23.5l-4.3 1.2c-8.6-.1-17.2-.2-25.8-.4-11.6-12.2-23.3-3.4-35-.3-4.8-15.1-14.6-32 12.5-36z" style="fill:#f09f17"/><path d="M1365 134.5c2.5-14.5 11.7-17.6 19.1-22.5 8.8-5.8 15.8-16.9 28.3-13 3.5 1.1 7.2 8.6 7.2 13-.4 16.9-16.6 17.5-27.1 23-7.6 3.9-17.1 7.3-27.5-.5z" style="fill:#b3bb54"/><path class="st8" d="M802 571.9c-17.8 3.2-35.6 6.4-66.5 11.9 29.8-20.7 45.5-43.3 72.9-17.8-2.2 1.9-4.3 3.9-6.4 5.9z"/><path d="M429 589c-8.6-.7-12.8-6.3-13.3-14.5-.5-8 2.1-15.8 11.4-15.6 10.1.2 18.7 5.4 17.8 17.1-.7 8.3-7.5 12.3-15.9 13z" style="fill:#1f437e"/><path class="st10" d="M1295.6 105.8c-8.2 30.1-28.2 20-49 17 8-22.7 24.7-16.4 38.3-17.9 3.7-1.1 7.3-.7 10.7.9z"/><path class="st8" d="M1567.5 48.2c2.5-8.5 8.4-11.9 16-7.9 4 2.1 8.6 7.8 8.7 11.9.2 8-6.1 12.9-14.1 11.9-8.6-1.1-10.8-8.1-10.6-15.9z"/><path class="st2" d="m1347.8 96.3 4.3-1.2c9.6.9 20.2-5.2 29.3 4.7-9.4 7.6-18.5 15.1-27.6 22.5l-16.2-4.5c3.5-7.2 6.9-14.3 10.2-21.5z"/><path d="m1338.2 79.7 16.2 4.5c-7.7 15.2-19.9 24.9-36 29.9-1.4-1.4-2.8-2.7-4.3-4.1 4.6-12.8 12.1-23.4 24.1-30.3z" style="fill:#00759b"/><path d="m737.5 522.8.1-4.9.4-4.9c5.1-2.3 10.3-4.5 15.3-6.9 10.6-5.2 23-9.6 25.9 6.4 2.3 12.3-10.1 12.9-19.5 12.5-7.4-.3-14.8-1.4-22.2-2.2z" style="fill:#2941a6"/><path d="M808.4 566c1.1 1.5 2.4 2.9 3.1 4.5 3.3 7.3 15.6 17.6 2.1 21.7-11.8 3.6-7.9-13-11.7-20.3 2.2-2 4.3-4 6.5-5.9z" style="fill:#35a4bf"/><path d="M1222.2 110.2c5.5 1.3 11.2 3.6 6.8 10.1-2.5 3.6-8.1 5.9-12.8 6.9-2.3.5-7.8-3.1-7.9-5.1-.5-9.2 6.5-11.1 13.9-11.9z" style="fill:#4afffa"/><path d="M935.7 371.3c-2.4-2.1-6.6-4.1-6.8-6.3-.2-2.5 3.3-5.3 5.2-8 2.4 2.1 6.6 4 6.7 6.2.1 2.6-3.3 5.4-5.1 8.1z" style="fill:#f9a39f"/><path class="st10" d="M909.1 318.5c-2-2.6-6.1-5.5-5.7-7.6 1.3-6.6 7-8 12.3-5.3 2 1 3.5 6.9 2.3 9.1-1.1 2.2-5.8 2.6-8.9 3.8z"/><path class="st16" d="M1232.3 165.8c-6.5-1.2-10.5-4.9-8.2-11.4.9-2.4 5.9-4.9 9-4.8 6.4.1 10.6 4.4 8.3 10.9-.9 2.5-5.9 3.6-9.1 5.3z"/><path class="st8" d="M1247 33.7c-1.4 6-5.6 9.2-11.2 8.7-7.9-.6-14.3-4.8-10.7-13.5 1.4-3.4 8.5-6.1 13-6.2 5.7 0 9.1 4.8 8.9 11z"/><path d="M712.3 612.7c-.5 5.9-3.3 9.9-9.5 10.2-5.6.3-10.4-2-10.5-8-.1-5.6 3.4-9.9 9.6-10.5 5.8-.5 9.4 2.4 10.4 8.3z" style="fill:#9c56cb"/><path d="M1295.6 105.8c-3.5-1.7-7.1-2-10.8-.9.2-3.2.9-6.3 2.2-9.2 11.7-3.1 23.5-11.9 35 .3-6.4 9.6-17.1 7.6-26.4 9.8z" style="fill:#00adee"/><path class="st8" d="M956.1 610.1c-1.5-4.3-.3-8.3 4-8.7 2.8-.3 7.8 2 8.6 4.2.8 2.4-2.1 6.1-3.4 9.2-3.1-1.5-6.2-3.1-9.2-4.7zM1462.5 85.1c1.6-5.2 5.9-10.7 10.3-8.1 8.7 5.3 3.1 10.8-2.5 15.2-2.5-2.5-5.1-4.9-7.8-7.1z"/><path class="st16" d="M1470.2 92.2c-2.6 1.7-6.3 5.3-7.5 4.6-5.7-3.3-3.4-7.7-.2-11.7 2.7 2.2 5.3 4.6 7.7 7.1z"/><path d="M1201.9 435.6h11.7v76.6h-11.7zM1051.1 255.6c-.9-3.7-1.4-7.5-1.8-11.3-.4-3.8-.5-7.6-.5-11.4.1-7.7.9-15.3 2.5-22.9 3.2-15.1 9.8-29.9 20-42 5-6.1 11.1-11.3 17.6-15.8l2.5-1.6c.8-.6 1.6-1.1 2.5-1.5l5.2-2.8c1.7-.9 3.6-1.6 5.3-2.4l2.7-1.2c.9-.4 1.8-.6 2.8-1 14.7-5.1 30.2-7 45.3-6-14.9 2.8-29.3 6.7-42.5 12.8-.8.4-1.7.7-2.5 1.1l-2.4 1.3c-1.6.9-3.2 1.6-4.8 2.6l-4.6 2.9c-.8.4-1.5 1-2.2 1.5l-2.2 1.6-2.2 1.6-2 1.7-2 1.7c-.7.6-1.4 1.1-2 1.8l-3.8 3.7-3.5 4c-9.2 10.9-15.8 23.9-20.1 37.9-4.3 13.9-6.7 28.6-7.3 43.7zM1026.1 218.2c-.2-2.9-.2-5.8 0-8.7.2-2.9.5-5.8 1-8.7.9-5.8 2.3-11.5 4.2-17.1 3.8-11.2 9.4-21.9 17-31.2 3.8-4.6 8-8.9 12.7-12.7 1.2-1 2.4-1.8 3.6-2.7l1.8-1.3 1.9-1.2c1.3-.8 2.5-1.6 3.8-2.3l4-2.1c10.7-5.3 22.5-8.1 34.1-8.2-10.9 3.9-21.2 8.5-30.5 14.5-4.6 3-8.9 6.4-13 10-1 1-2 1.9-3 2.8-1 .9-1.9 2-2.8 2.9-1 1-1.9 2-2.8 3-.9 1-1.8 2-2.6 3.1-7 8.4-12.6 18-17.4 28-4.9 10.2-8.9 20.8-12 31.9zM1681.3 392.1c.9 0-.8-2.1-.9-2.3-.6-.7-2-2.7-3.1-2.7-.9 0 .8 2.1.9 2.3.5.8 2 2.7 3.1 2.7zM270.1 581.7c19.9 13.2 41.5 23.8 64.2 31.2 22.4 7.3 45.8 11.7 69.3 12.8 13.3.6 26.6.2 39.8-1.2.5 0-1-2.2-.8-1.9-.9-1.3-2-2.5-3.1-3.6s-2.3-2.2-3.5-3.1c-.6-.4-1.2-.9-1.9-.8-23.1 2.5-46.6 1.7-69.5-2.1-22.8-3.8-45.2-10.5-66.2-20.2-11.7-5.4-23-11.6-33.8-18.8-.1 0-1.5-1.2-1.9-.8-.4.4.8 1.9.8 1.9 1.7 2.4 4 5 6.6 6.6zM301.5 635.4c22.4 17.3 51.1 26.4 79.4 25.4 7.8-.3 15.6-1.4 23.2-3.2 3-.7 1.7-4.1.2-5.6-2.2-2.1-5.6-3.7-8.7-2.9-6.4 1.5-11.7 2.3-18.3 2.7-3.1.2-6.2.2-9.4.1-.8 0-1.6-.1-2.4-.1-.3 0-2.2-.1-1.2-.1-1.7-.1-3.4-.3-5.1-.5-3.1-.4-6.2-.8-9.3-1.5-1.6-.3-3.1-.7-4.7-1 1.3.3-.7-.2-1-.3-.9-.2-1.7-.5-2.6-.7-3.1-.9-6.1-1.9-9.1-3.1-.7-.3-1.3-.5-2-.8-1.2-.5-.1 0 .2.1-.4-.2-.8-.4-1.2-.5-1.5-.6-2.9-1.3-4.4-2-1.6-.8-3.2-1.6-4.7-2.5-.8-.4-1.6-.9-2.3-1.3-.4-.2-.8-.4-1.2-.7.8.5.6.3-.1-.1-3.1-1.9-6.1-4-9-6.3-2-1.5-6.2-3.2-8.4-1.4-2.4 2.1.6 5.1 2.1 6.3z"/><path class="st19" d="M1545.3 350.3h137.8l-87.2 101.2 57.7-84.3zM68.4 365.5l32.5 41-45.6 171.4 28.8-162.4z"/><path class="st20" d="M265.7 329.6c4.3 16.2 12.8 31.1 24.6 43.2 1 1 2.8 1.5 3.8.3 1-1.3.1-3.3-.9-4.3-10.5-10.7-18.2-24.1-22.1-38.6-.4-1.5-1.5-3.2-3.3-3.3-1.5-.3-2.5 1.3-2.1 2.7zM251 457.5c8 10.8 15.6 22 24.7 31.9 8.5 9.3 18.3 17.3 28.9 24.1 22.3 14.3 47.4 23.4 72.8 30.3 14.6 4 29.3 7.3 44 10.6 1.3.3 3.5.4 4.5-.7 1-1-.2-1.9-1.3-2.1-25.7-5.7-51.5-11.5-76.2-20.9-23.4-8.9-45.9-21.3-63.6-39.3-10.4-10.6-18.7-23.1-27.6-35-.9-1.2-2.8-1.2-4.1-1-.5.2-2.9.9-2.1 2.1z"/><linearGradient id="SVGID_00000133494590365284959700000009481758500632977320_" gradientUnits="userSpaceOnUse" x1="884.924" y1="473.508" x2="981.722" y2="256.098"><stop offset="0" style="stop-color:#70bbc2"/><stop offset="1" style="stop-color:#b3c7cd"/></linearGradient><path style="fill:url(#SVGID_00000133494590365284959700000009481758500632977320_);stroke:#231815;stroke-width:5;stroke-miterlimit:10" d="M1013.5 298c-.6-5.1-.9-10.4-2.3-14.6l-.9-3.3c-.4-.9-.9-1.8-1.3-2.7l-1.4-2.6c-.2-.4-.5-.9-.7-1.3l-.8-1c-1-1.3-2.1-2.7-3.1-4-1.1-1.2-2.2-2.2-3.5-3.3-1.3-1-2.7-2.1-4.5-3.1-1.8-1-3.9-1.9-6.2-2.7-4.7-1.6-9.9-2.3-14.6-2.3-2.4 0-4.6.2-6.7.5-1 .2-2 .3-2.9.5-.5.1-.9.2-1.3.3l-1.3.6c-3.6 1.4-7.2 2.6-10.8 4l-11.9 8.5-12.3 13.2-1.2 1.5c-1.9-6.6-4.7-12.5-8.1-17.3-3.4-5-7.8-8.8-12-11.1-4.2-2.3-8.5-3.2-12.7-2.5-4.1.7-7.7 2.8-10.8 5.9-3.1 3.1-5.3 7-7.5 11.8-3.9 9.4-6.5 21.4-6.8 35.2-.5 23.4-4.1 48-7 73.3-1.4 12.7-2.6 25.7-3.2 38.8-.1 3.3-.2 6.6-.2 9.9 0 1.7-.1 3.3-.1 5l.1 5 .1 5 .1 2.5v.3l.1 1.1c.1.7.2 1.4.4 2.2l.3 1.1c.1.4.2.8.4 1.2.3.8.6 1.6 1 2.4.7 1.5 1.8 3.2 3 4.6 1.2 1.5 2.7 2.9 4.3 4.1 1.6 1.2 3.3 2.3 5.1 3.2 1.7.8 3.6 1.6 5.5 2.2 3.7 1.1 7.5 1.6 11.3 1.6 3.8 0 7.7-.6 11.5-1.8 1.9-.6 3.9-1.4 5.6-2.3 1.8-.9 3.6-2.1 5.1-3.4 1.5-1.2 2.9-2.7 4-4.1 1.1-1.4 2-2.9 2.7-4.4.3-.7.6-1.4.8-2.1l.3-1.1.3-.9.1-.3.5-2.4 1.1-4.8c1.4-6.4 2.6-12.9 3.7-19.1l1.7-9 1.9-9.1c2.6-12 5.4-23.8 9.1-35 3.6-11.3 8.1-22 13.6-32.3l1-1.9 1.1-1.9 2.2-3.8.8-1.3.3-.5.6-1 .4-.7.4-.7c.3-.4.6-.8 1-1.3.3-.5 1.1-.7 1.7-.6.6.2.6.7.7 1.2.1.5.2 1 .2 1.5.1.5.1 1.1.1 1.6v1.3l-.1 2.1-.2 4.1c-.2 2.7-.3 5.5-.5 8.2-.4 5.5-1 10.9-1.8 16.4-.4 2.7-.8 5.4-1.3 8.1l-1.6 8.9c-.6 3.6-.9 7.5-.6 11.8.3 4.3 1.4 8.9 3.5 13.2.5 1.1 1.1 2.1 1.8 3.2.8 1.2 1.5 2.4 2.4 3.5.9 1.1 1.7 2.1 2.7 3 .9.9 1.9 1.8 2.9 2.6 4 3.2 8.4 5.3 12.9 6.7 4.5 1.4 9 1.9 12.9 1.7 4-.2 7.4-1.2 9.9-2.5 2.4-1.3 3.8-2.8 4.4-4.4.6-1.5.4-2.9-.2-4.2-1.2-2.6-3.8-4.7-5-7.1-1.3-2.4-1.3-4.7-1.1-6.8.1-1.1.3-2.1.7-3l.3-.6c.1-.2.2-.3.4-.5.1-.1.3-.2.5-.3.1 0 .1-.2.2-.3l.1-.4c.4-1 .7-2.1 1-3.7.3-1.6.8-3.7 1.2-6.2l1.7-8.4c.6-3.1 1.1-6.1 1.7-9.2 1-6.1 1.8-12.3 2.4-18.5.3-3.1.6-6.2.8-9.3l.3-4.6.1-2.3.1-2.8c.5-10.8.3-21.6-.6-31.9z"/><path d="m1152.9 523.3-7.6 6.5-3-78.3h8z"/><linearGradient id="SVGID_00000175299602300815971020000009570435633433092231_" gradientUnits="userSpaceOnUse" x1="408.737" y1="541.493" x2="557.635" y2="207.06"><stop offset="0" style="stop-color:#70bbc2"/><stop offset="1" style="stop-color:#b3c7cd"/></linearGradient><path style="fill:url(#SVGID_00000175299602300815971020000009570435633433092231_);stroke:#231815;stroke-width:7;stroke-miterlimit:10" d="M652.5 318.8c-1.2-10-3.8-20-7.6-29.6-3.8-9.6-8.8-18.6-14.7-26.8-5.9-8.2-12.6-15.6-19.8-22.1-14.4-13.1-30.7-23.2-47.6-30.9-16.8-7.7-34.5-13.2-52.6-16.6-18.1-3.4-36.7-4.6-55.3-3.5-9.4.6-19.7 1.9-30.4 5.3-5.4 1.7-10.7 3.9-16.2 7-5.4 3.1-10.5 6.8-15.1 11.3-4.6 4.5-8.8 9.7-12.2 15.9-1.7 3-3.1 6.4-4.3 9.8-.5 1.8-1.1 3.5-1.5 5.3l-.6 2.7-.4 2.7c-1 7.2-.7 14.6.7 21.1 1.4 6.6 3.6 12.5 6.2 17.7 2.5 5.3 5.4 9.8 8.2 14 2.9 4.2 5.8 8 8.7 11.5 6 7.2 10.8 12.7 15.8 18.9 19.8 24.3 37.3 49.9 50 76.8 3.8 8 7.2 16.2 10 24.4.1 9.9.1 20.8 1.5 32.9.3 2.7.8 5.4 1.3 8.2-.4.1-.7.3-1.1.4-1.1.4-2.2.8-3.3 1.3-1.1.4-2.1.7-3.2 1.1-8.4 3-15.7 5-22.2 6.4-6.4 1.4-12 2.1-16.8 3.2-4.6.9-8.4 2.4-10.1 5.3-1.7 2.8-1.1 6.8 2.3 11.7.9 1.1 2 2.3 3.3 3.6.6.6 1.3 1.2 2 1.9.7.6 1.5 1.1 2.4 1.7.8.6 1.7 1.1 2.7 1.7.9.6 1.9 1.2 2.9 1.7 2.1 1 4.3 2 6.7 2.9 9.7 3.5 21.9 4.9 34.8 3.6 5.7-.5 11.5-1.6 17.3-3.1l46.5 82.2-.8-102s.1 0 .1-.1c7.6-4.3 15.1-8.9 22.4-13.9 14.7-9.8 28.9-21.2 41.7-34.5 6.4-6.6 12.4-13.8 17.9-21.4l2.1-2.8 2-2.9c1.3-2 2.6-3.9 3.8-6 1.2-2.1 2.5-4.1 3.6-6.2l3.4-6.4c4.2-8.6 7.7-17.6 10.4-26.9.6-2.3 1.4-4.6 1.9-7l1.6-7.1 1.2-7.2c.4-2.4.6-4.9.8-7.3.9-9.8.8-19.8-.4-29.9zm-49.6 25.1c-.4 6.4-1.6 12.9-3.4 19.2-1.8 6.4-4.1 12.7-7 18.7-1.5 3-3 6-4.7 8.8-.4.7-.8 1.4-1.3 2.2l-1.4 2.2c-.9 1.4-1.8 2.9-2.9 4.3-4 5.7-8.4 11.1-13.3 16.2-9.7 10.3-21 19.7-33.3 28.2-.4.3-.9.6-1.4.9-.6-2.7-1.2-5.3-1.9-7.9-.7-2.7-1.5-5.3-2.2-7.9 0-18.4.3-36.8.7-55.2.6-30.3-1.7-58.2-6.3-78.5-4.6-20.3-11.4-33.1-19.4-33.4-7.9-.2-15.5 12-21.2 31.9-2.7 9.4-5 20.5-6.7 32.9-7-9.6-14.2-18.9-21.7-28-5.4-6.5-11.4-13.3-15.9-18.7-2.3-2.8-4.4-5.5-6.2-8-1.8-2.5-3.3-4.9-4.3-7-1-2.1-1.7-3.9-2-5.2-.3-1.4-.3-2.2-.2-3 0-.2 0-.4.1-.6 0-.2.1-.3.1-.5.1-.4.2-.8.5-1.3.5-1 1.3-2.1 2.5-3.3 1.2-1.2 2.7-2.3 4.3-3.3.8-.4 1.7-1 2.8-1.4 1-.5 2.1-.9 3.3-1.3 4.7-1.6 10.8-2.6 17.6-3.1 14-1 28.3-.2 42.4 2.2 14 2.5 27.8 6.7 40.8 12.4 12.8 5.7 24.7 13 34.5 21.7s17.4 18.8 21.9 29.7c4.5 10.8 6.1 23.3 5.2 36.1z"/><linearGradient id="SVGID_00000175292589487792443730000004630336634311438527_" gradientUnits="userSpaceOnUse" x1="725.032" y1="456.201" x2="810.801" y2="263.562"><stop offset="0" style="stop-color:#70bbc2"/><stop offset="1" style="stop-color:#b3c7cd"/></linearGradient><path style="fill:url(#SVGID_00000175292589487792443730000004630336634311438527_);stroke:#231815;stroke-width:6;stroke-miterlimit:10" d="M859 422.4c-4.4-5-12.4-5.6-20.9-5.3-4.3.2-8.7.6-13 .9-2.1.1-4.2.2-6.2.3-.5 0-1 0-1.5.1h-4.2c-4 0-8.2-1.1-11-2.7-1.4-.8-2.6-1.7-3.4-2.7-.4-.5-.7-.9-1.1-1.4-.4-.5-.7-1.2-1-1.9-1.4-2.9-2.4-7.9-2.7-14.1-.1-1.5-.1-3.2-.1-4.9 0-1.7-.1-3.4 0-5l.2-5 .3-5c1.2-15 4.6-29.8 10.1-43.9 6.5-10.7 12.7-21.5 18.6-32.5L777.8 272c-6.2 9.4-11.5 19.4-16.1 29.6-7.7 12.3-15.8 24.4-24.4 36.1-7.3 10.1-15 20-22.9 29.6l-6 7.2-.8.9-.4.4-.1.1c-.1.1-.1.1-.2.1l-.2.2c-.3.2-.7.4-1 .5-.3.1-.7 0-1-.3-.2-.3-.3-.7-.3-1v-1.7c0-5.1.7-10.3 1.4-15.4 1.8-10.2 4.9-20.2 9.5-29.6 1.2-2.3 2.3-4.7 3.6-6.9.7-1.1 1.3-2.3 2-3.3l2.1-3.2c.4-.5.7-1.1 1.1-1.6l1.2-1.5 2.3-3.1 2.5-2.9 1.2-1.5c.4-.5.9-.9 1.3-1.4 1.1-1.2 2.2-2.5 3.2-3.6 1.1-1.2 2.1-2.4 3.1-3.6 2-2.4 3.3-4.1 4.1-5.4.4-.6.6-1.2.6-1.7.1-.3 0-.5 0-.7 0-.3 1.1 0 1.1-.3.3-1.1 18-2.8 18.9-3.8 1.7-2.1 4.5-3.4 6.8-4 2.3-.7 4-.9 5.9-3 2.8-3.2 5.9-8.1 5.3-14.5-.3-3.2-1.5-6.6-3.9-9.9-2.4-3.3-5.9-6.3-10.4-8.5s-10-3.4-16.1-3.1c-3 .1-24.2.6-27.4 1.5-3.2.9-6.1 2-8.8 3.3-5.4 2.6-10 5.8-13.9 8.9-1.8 1.5-3.7 3.2-5.5 4.8-1.8 1.7-3.5 3.6-5.2 5.4-21 23.8-34.4 53.3-39.3 84.3-1.1 7.8-1.9 15.6-1.8 23.5v3.7c0 1.5.1 3.2.3 4.7l.8 9.5c.2 3.2.7 6.3 1.5 9.2.3 1.5.8 2.9 1.2 4.4.5 1.4.9 2.8 1.5 4.2 4.3 10.9 11.3 19.7 20.9 25.2 4.8 2.8 10.2 4.6 15.6 5.4 5.5.8 11 .6 16.4-.6 10.8-2.4 21.3-8.4 30.4-17.1 2.3-2.2 4.5-4.4 6.6-6.8.6-.6 1.2-1.3 1.8-2 0 .2.1.4.1.6 1.1 5.3 2.8 10.9 5.5 16.6 2.6 5.7 6.4 11.4 11.1 16.4 4.6 4.9 10 8.8 15.5 11.8 11.1 6 22.9 8.5 34.7 8.5 1.3 0 2.7-.1 4-.2 1.3-.1 2.6-.3 3.9-.5 2.5-.4 4.9-.9 7.1-1.6 4.6-1.3 8.7-3.1 12.3-5.1 7.2-4.1 12.4-9.1 15.8-13.9 3.4-4.8 5.1-9.5 5.4-13.5.6-3.6-.5-7-2.7-9.4z"/><linearGradient id="SVGID_00000075842125182756493190000006120758043772344212_" gradientUnits="userSpaceOnUse" x1="921.288" y1="818.732" x2="1195.485" y2="202.875"><stop offset="0" style="stop-color:#70bbc2"/><stop offset="1" style="stop-color:#b3c7cd"/></linearGradient><path style="fill:url(#SVGID_00000075842125182756493190000006120758043772344212_)" d="M1074 302.3c.8.1 7.1-11.7 7.9-11.6 1.6.2 9.9-13.5 10.3-14.7 7.9-22.4-15.9 12.9-15.8 14.5v.3l-.2.5-.3.9c-.2.5-.5 1-.7 1.4-.5.8-1 1.2-1.3 1.5-.2.1-.3.2-.5.3H1073.1l-.1.1-.3 1c-1.8 5.2-3.9 10.9-6 17.5-4 12.3-7.3 24.8-10.1 37.5-1.4 6.3-2.6 12.7-3.7 19l-.8 4.8-.8 5.3c-.8 5.9-1.7 11.9-2.2 17.8l-.5 4.4c-.2 1.5-.1 2.9-.2 4.3l-.2 4.3c0 1.4-.2 2.9 0 4.2l.6 7.9c.3 2.5.8 4.8 1.4 7.1 2.5 9 6.6 16.2 13 22.2 1.6 1.5 3.4 2.9 5.3 4.2.5.3.9.7 1.4.9l1.5.8c1 .6 2.1 1 3.1 1.6 4.3 1.9 8.8 3.1 13.1 3.4 8.6.7 16.6-1 25.1-5.2l1.6-.8c.3-.2.5-.3.8-.5l.8-.6 3.2-2.5 6.4-5 3.2-2.5 1.6-1.2c.5-.5 1.1-.7 1.6-1.3l6.2-6.4 6.2-6.4 3.1-3.2c.5-.5 1-1.1 1.4-1.6l1-1.2c0 2.8.1 5.6.1 8.4.3 12.3.7 24.6 1.2 36.7.5 12.1 1.1 24 1.3 35.6.2 11.6.2 23-.5 34.1l-.3 4.1-.4 4.1c-.3 2.7-.5 5.5-.8 8.2-.7 5.5-1.4 10.9-2.4 16.4-7.6 43.5-25.3 85.5-51.3 121.3-3.3 4.4-6.6 8.9-10.1 13.1-3.4 4.3-7.1 8.5-10.8 12.5-7.4 8-15.1 15.2-23.3 21.4-4.1 3.1-8.3 5.9-12.5 8.5-2.1 1.3-4.4 2.3-6.5 3.5-1.1.6-2.1 1.2-3.3 1.7l-3.4 1.5c-9.1 4-18.8 6.9-28.9 8.8-20.2 3.8-41.7 3.3-62.8-.5-10.6-1.9-21.1-4.6-31.3-8-10.3-3.5-20-7.6-28.9-12.5-5.9-3.3-11.3-6.8-16.2-10.3-2.5-1.8-4.7-3.6-6.9-5.4-1.1-.9-2.1-1.9-3.1-2.8-.9-.9-1.9-1.8-2.8-2.7-7.4-7.4-13-15.6-17-22.9-4-7.4-6.7-14.1-8.9-19.3-.5-1.3-1.1-2.5-1.7-3.6-.6-1.1-1.1-2.1-1.7-2.9-1.2-1.7-2.6-2.9-4.2-3.4-1.6-.4-3.3-.1-5.2 1.1-.9.6-1.9 1.4-2.9 2.5-.9 1.1-1.9 2.4-2.8 3.9-.9 1.5-1.7 3.3-2.5 5.4-.7 2-1.4 4.3-2 6.7-1.1 4.9-1.5 10.7-1.2 17.1.8 12.7 5.3 27.8 14.7 42.1 9.5 14.4 23.5 26.8 39.6 36.1 12 7 24.5 12.3 36.9 16.6 12.5 4.3 25.2 7.8 38.3 10.3 13 2.5 26.3 4 39.8 4.3 13.4.3 27.1-.6 40.6-2.9s27-6.1 39.9-11.5c6.5-2.6 12.8-5.9 18.9-9.3 6.1-3.5 11.9-7.3 17.4-11.4 11.1-8.2 21-17.3 30.1-26.9 4.5-4.8 8.9-9.6 13-14.7 2.1-2.5 4.2-5 6.2-7.6l5.9-7.8c30.9-41.8 52.1-90.6 61.7-141.8 2.5-12.8 4-25.8 5-38.8.9-13 1.1-25.7.9-38.2-.1-12.5-.6-24.8-1-36.8-.4-12-.8-23.7-.9-35.6-.4-28.5-1.2-17.9.1-46.4 5.1-9.4 27.4-48.6 31.8-58.3 5.4-11.8 7.3-24.2 11.5-36.4l3.6-14.8c.5-1.5 1-10.6 1.6-12.4.5-1.7 2.4-16.5 2.9-18.6.5-2.1-20 10.2-17.6 11.1 8.1 2.8 18.7-4.3 17.6-11.1-.3-1.7-20.7-14.3-21.2-16l4.2 6.6c-.1-.4-.3-1-.5-1.5-.4-1 17.9 11.8 17.4 10.9-11.3-21.5-18.6-20.2-21.1-23.3-2.5-3.1-9.5-6.7-12.8-9.1-3.4-2.3-7.3-4.3-11.9-5.7-4.6-1.3-10-2-15.8-1.2-5.7.7-11.5 3-15.8 5.9-4.5 3-8.2 6.9-10.6 10.6-2.5 3.7-4 7.2-5.1 10.2-2.2 6.2 41.4 27.5 40.9 31.5l-1 9.4c-.3 3.1-.6 6.1-.9 9.2-.6 6.1-1.1 12.2-1.6 18.4-1.1 14.4-44.2 65-51.3 77.7l-23.1 15c-1.8 2.1-14.1 7.9-16.8-2.7l-.3-3v-1.3c-.1.1.1-.1 0 0-.2.1.1.3 0 0s.1-.5.1-.7l.1-.1.1-.5.3-2.1c.2-1.4.5-2.8.7-4.1 1-5.5 2.1-11 3.3-16.5 2.4-10.9 5.4-21.7 8.9-32.3.9-2.9 1.9-5.7 2.8-8.6 1-3 2-6.1 3-9.3l.8-2.6c.4-1.4.8-2.9 1.2-4.4.4-1.5.8-2.9 1.2-4.4.3-1.5.6-2.9 1-4.4 1.3-5.8 2.1-11.5 2.4-16.9.2-1.4.1-2.7.1-4 0-1.3-.6 10.7-.6 9.4-.1-2.5 36-49.6 35.8-52-.4-2.3-39.2 24.1-37 24.5 14.2 2.3 37.3-24.4 36.2-24.5-42-3.4-37.6 19.2-38 18.2-1.4-3.9 44.5-9.4 40.6-10.7-67-22.8-46.5-4.6-47.3-6.5-.4-1-.8-1.9-1.2-2.9-.4-1 52 11.9 51.6 11.1-9.5 1.1 21-37 13.2-35.6-1.9.3-55.8 16-57.7 16.4-1.9.5-3.8.9-5.6 1.6l-5.4 1.8c-1.8.7-3.5 1.5-5.2 2.2-1.7.7-3.3 1.6-4.9 2.4-1.6.9-5.9 3.2-7.4 4.1-13.1 8.7-29.3 66.8-31.7 68.8-1.2 1 17.4-28.7 16.2-27.7-1.1.9-2.2 2-3.2 3-1.6 1.6-2.7 3.2-3.9 4.7-4.6 6.2-6.9 11.8-7.6 16.2-.7 4.4.2 7.5 2.3 9.2"/><path class="st20" d="M422.7 212.5c-9.3 1.9-17.5 7.3-23.5 14.6-6.3 7.7-9.2 17.6-8.5 27.5.4 5.7 2 11.3 4.8 16.3 1.9 3.4 8-.2 6.1-3.6-5.3-9.7-5.7-22-.6-31.8 4.6-8.9 13.2-15 22.9-17.1 1.6-.3 3.1-2.3 2.7-4-.3-1.9-2.3-2.2-3.9-1.9zM863.6 783.5c23.9 14.2 49.7 28.8 78.1 30.3 7.7.4 15.4-.3 22.9-2.2 1.7-.4 1.8-2.5 1.1-3.8-.9-1.5-2.8-2.5-4.5-2-25.8 7.3-51.9-2.8-74.9-15.7-6.6-3.7-13.1-7.3-19.6-11.1-1.3-.8-3.4-1.3-4.5.2-1 1.4.1 3.5 1.4 4.3zM663.3 394.9c-4.8 7.5-2.2 17.2 3 23.8 6.8 8.5 17.6 12 28.1 13 6.3.6 12.7.2 19.1-.2 1.5-.1 1.6-1.3.7-2.2-1.2-1.2-3.2-1.6-4.8-1.6-6.2.4-12.5.7-18.7 0-5.1-.6-10.5-2-14.6-5.3-7.3-5.9-11.5-16.9-6.1-25.4 1.1-1.5-5.3-4.2-6.7-2.1zM1180.2 226.6s-10-.3-6.7 1.5 21.2-1.5 26.2 3 20 9.5 28.4 21.7c8.4 12.3-.5-9.3-.5-9.3s-24.2-21.9-47.4-16.9z"/><linearGradient id="SVGID_00000035495596493371389760000000622754999380036020_" gradientUnits="userSpaceOnUse" x1="1261.91" y1="234.158" x2="1423.769" y2="299.553" gradientTransform="matrix(1.1989 .05557 .05557 .8965 -267.874 -28)"><stop offset="0" style="stop-color:#70bbc2"/><stop offset="0" style="stop-color:#b3c7cd"/></linearGradient><path style="fill:url(#SVGID_00000035495596493371389760000000622754999380036020_);stroke:#231815;stroke-width:6;stroke-miterlimit:10" d="M1462.4 298.6c-9.3 52.2-69.6 97.3-126.3 87.2-56.7-10.1-88.3-71.6-79-123.7s62.8-86.2 119.5-76.2c56.6 10 95 60.5 85.8 112.7z"/><ellipse cx="1337.5" cy="271.8" rx="10.8" ry="37.5"/><ellipse cx="1392.2" cy="271.8" rx="10.8" ry="37.5"/><g><path d="M1344.9 322.2s7.2-10.2 12.6-5.6c5.4 4.7-2.7 14.8-2.7 14.8s-5.4-.4-9.9-9.2z" style="fill:#ff7979;stroke:#000;stroke-width:2;stroke-miterlimit:10"/><path d="M1353.5 321.9s-4.6 5.1-4.6 5.6 2.9 2.8 2.9 2.8 12.7 5.8 16.5 5.5" style="fill:none;stroke:#000;stroke-width:2;stroke-miterlimit:10"/></g><path class="st20" d="M1394.4 204.6s-8.5-1.5-5.9.8c2.6 2.3 18.3.9 22 6.1 3.7 5.2 15.8 12 21.3 25.6 5.5 13.5.8-9.6.8-9.6s-17.7-25.3-38.2-22.9z"/></svg>