<svg viewBox="0 0 1691 257" xmlns="http://www.w3.org/2000/svg"><path fill="#2d2d2d" opacity=".24" d="M113.25 0h1.64l-.07.92c-.46-.04-1.38-.11-1.84-.14l.27-.78Z"/><g fill="#484544"><path opacity=".49" d="M114.89 0h27.37l1.56.95c-9.67-.44-19.33-.75-29-.03l.07-.92ZM499.81 59.87c2.22.32 1.45 2.6 1.61 4.14-.14 45.42.1 90.84-.12 136.25-11.43.43-22.87.04-34.31.22-1.51-.17-3.74.57-4.16-1.53 12.31-.06 24.63.01 36.94-.04 0-46.34-.08-92.7.04-139.04ZM654.58 144.68c.51-9.94-.28-19.99.97-29.87.27 9.76.02 19.53.04 29.29.33 1.68-1.02 2.53-2.55 2.23-30.91.05-61.82-.02-92.72.03.08 6.88-.16 13.76.08 20.63l.45.42c26.04.21 52.11.02 78.16.09 5.11.07 10.24-.26 15.34.31-3.44.22-6.88.29-10.32.26-28.47-.1-56.94.14-85.41-.13-.05-7.75-.02-15.5-.02-23.25 31.91-.01 63.81.01 95.72-.01h.26ZM944.72 150.95c.15-.5.44-1.48.58-1.98 5.16 15.66 10.66 31.2 15.98 46.8.53 1.5.53 3.1.59 4.68-11.97-.04-23.94.07-35.91-.04-1.19.23-1.86-.69-2.52-1.45 12.55-.08 25.1.01 37.65-.05-5.43-16-11.13-31.91-16.37-47.96ZM654.95 183.98c.55-5.02-1.57-10.33.56-15.12.19 10.5.27 21.01-.07 31.51-43.13.21-86.27-.02-129.4.11-1.54-.17-3.79.58-4.23-1.53 44.19-.1 88.37.09 132.56-.09 1.2-4.84-.04-9.94.58-14.88ZM1124.95 168.77c2.34 1.61 1.03 4.84 1.37 7.23-.44 8.13.84 16.43-.74 24.45-48.23 0-96.45-.02-144.68.01-1.29.04-2.74.13-2.98-1.51 45.02-.05 90.05 0 135.08-.03 3.8-.02 7.64-.19 11.41.55l.04-.5c1.01-10 .04-20.15.5-30.2ZM1287.96 198.93c10.63-.19 21.49.8 31.86-2.12.67.21 2 .62 2.66.82-7.42 3.12-15.62 2.85-23.5 2.82-30.35.01-60.7-.02-91.04.02-1.06.12-1.79-.33-2.19-1.35 27.39-.44 54.8-.07 82.21-.19ZM1623.93 198.93c11.13-.2 22.51.86 33.37-2.22 1.66-.17 3.35-.36 5.06-.56-1.73 2.14-4.73 2.2-7.16 2.92-8.24 2.01-16.77 1.22-25.16 1.38-28.71-.13-57.43.24-86.13-.18-.43-.28-1.3-.83-1.73-1.11 27.24-.53 54.5-.08 81.75-.23Z"/></g><path fill="#303030" opacity=".47" d="M105.97 1.87c1.8-1.28 4.04-1.45 6.12-.76-1.81 1.3-4.05 1.44-6.12.76Z"/><path d="m112.09 1.11.89-.33c.46.03 1.38.1 1.84.14 9.67-.72 19.33-.41 29 .03.12.02.37.07.49.09 3.63.92 7.34 1.43 11.05 1.86l.29.07c3.47 1.36 7.11 2.14 10.76 2.84l.18.06c2.79 1.53 5.84 2.49 8.96 3.13l.32.11c1.21 1.4 2.96 2.08 4.81 1.99l.67.34c.19.09.56.27.74.36l.87.43c.22.11.66.34.89.45l1.04.52c.26.12.78.38 1.04.5l1.07.54c.17.09.51.29.68.38l.42.24c2.27 1.66 4.67 3.16 7.36 4.02l.3.11c.09 1.46.89 2.16 2.4 2.09l.52.02c.36 1.27 1.21 1.93 2.55 1.95l.36.16c2.52 2.03 5.07 4.02 7.84 5.69l.25.2c2.26 2.65 4.74 5.11 7.7 6.97.5.51 1 1.02 1.51 1.53 1.95 3.54 5.01 6.2 8.09 8.72.27.34.81 1.01 1.08 1.34-.01 1.8 1.18 3.27 2.92 3.7.27.34.79 1.02 1.05 1.36.04 1.5.74 2.32 2.09 2.47l.01.46c-.11 1.41.54 2.28 1.95 2.6l.04.37c.03 1.41.7 2.42 2 3.02l.27.59c.06.13.19.39.26.53l.28.59c.2 2.18 1.25 4.11 3.1 5.33l.28.59c.06.14.18.42.25.55l.27.64c-.14 1.52.18 3.68 2.07 3.86l.03.54c-.16 1.71.82 3.2 2.09 4.25l.02.79c.26.65.8 1.95 1.06 2.6l.29.69c.07.15.19.45.26.61l.3.7c.25.66.76 1.97 1.02 2.63l-.04.81c.28.54.84 1.63 1.11 2.18l-.09.87c.27.56.79 1.67 1.05 2.23l-.07.69c-.44 1.38-.09 2.48 1.06 3.32l-.06.68c-.48 1.51-.2 3.19 1.06 4.24l-.01.73c-.51 1.5-.27 3.18 1 4.23l.21.85c-.77 2.32-.71 4.87.77 6.92l.1.58c.05 8.68.05 17.36 0 26.05l-.11.62c-1.47 2.05-1.51 4.61-.78 6.95-.06.4-.19 1.18-.25 1.58-1.09.91-1.4 2.05-.95 3.42l.03.74c-1.26 1.05-1.55 2.72-1.07 4.24l.08.69c-1.16.83-1.51 1.94-1.07 3.32l.08.68c-.27.56-.8 1.66-1.06 2.22l.09.89c-.28.55-.83 1.64-1.11 2.19l.03.83-1.03 2.62-.3.71c-.06.15-.19.46-.25.61l-.28.72-1.12 2.56v.76c-1.23 1.08-2.19 2.54-2.07 4.25l-.04.62c-1.91.18-2.22 2.34-2.06 3.87l-.27.59c-.06.14-.18.4-.24.53l-.26.57c-1.84 1.23-2.89 3.16-3.11 5.34l-.29.6c-.07.13-.2.4-.27.53l-.27.58c-1.31.61-1.97 1.63-1.98 3.05l-.04.34c-1.35.34-2.03 1.22-2.04 2.64-.34.48-1.02 1.42-1.36 1.9l-.21.23-.17.28-1.31 1.87c-1.38.36-2.09 1.26-2.13 2.68-.63.8-1.26 1.59-1.89 2.38-2.78 2.18-5.38 4.62-7.13 7.72l-1.41 1.44c-3.44 2.12-6.19 5.09-8.85 8.09-.32.25-.95.77-1.27 1.02-1.46.08-2.3.84-2.53 2.28-.42.15-1.26.46-1.68.62-1.3.21-2.03.93-2.21 2.14l-.71-.07c-1.34-.14-2.15.5-2.45 1.91l-.54.04c-1.36.01-2.23.69-2.6 2.05l-.46.07c-1.96.03-3.55 1.23-4.53 2.86l-1.31.68c-.13.07-.38.2-.51.26l-.9.47c-.2.11-.59.31-.78.41l-.97.5c-.29.14-.87.43-1.16.57l-1.02.48c-.18.09-.55.27-.73.35l-.72.33c-2.02-.33-4 .41-5.09 2.19l-.56.29c-.11.05-.33.15-.43.21l-.31.15c-3.01.87-5.97 1.89-8.83 3.16l-.25.08c-1.38-.47-2.43-.1-3.18 1.1l-.7-.18c-1.3-.42-2.36-.05-3.18 1.11l-.81.03c-.58.21-1.75.61-2.34.81l-.46.08c-4.39.4-8.74 1.12-13.04 2.04l-1.38.07c-3.99.1-7.95.73-11.95.79-5.63.21-11.21-.76-16.83-.81-.26-.06-.79-.18-1.06-.24-1.82-1.3-4.08-1.36-6.14-.66l-.76-.24c-1.15-1.22-2.87-1.38-4.4-.88l-.64.04c-.79-1.2-1.87-1.59-3.25-1.17l-.69.1c-.83-1.15-1.94-1.51-3.32-1.09l-.76.09c-.56-.25-1.69-.75-2.25-1l-.84.08c-.53-.29-1.6-.87-2.13-1.15l-.76.06c-.56-.26-1.67-.78-2.22-1.04l-.58.05c-.62-2.08-3.12-1.96-4.84-2.07l-.68-.28-.25-.1-.24-.09-.38-.15c-3.63-1.97-7.31-3.82-11.09-5.49l-.3-.18c-.09-.06-.29-.19-.39-.25l-.5-.31c-1.07-1.8-2.84-2.94-4.95-3.01l-.38-.1c-.32-1.4-1.17-2.09-2.54-2.05l-.49-.01c-.35-1.32-1.2-2.03-2.57-2.13-.41-.15-1.23-.43-1.64-.57.06-1.51-.71-2.29-2.32-2.36-.46-.22-1.38-.66-1.83-.88.05-2.35-1.91-3.75-4.06-3.94-.39-.21-1.15-.64-1.53-.85-3.11-3.29-6.26-6.53-9.6-9.58-.2-.29-.61-.86-.81-1.15-1.33-2.16-3.03-4.04-4.73-5.91l-.18-.37c-.02-1.4-.72-2.21-2.11-2.43-.23-.36-.68-1.08-.91-1.44.08-1.44-.57-2.33-1.95-2.66l-.02-.49c.04-1.45-.65-2.22-2.07-2.31l-.06-.66c-.12-1.3-.8-2.24-2.05-2.83l-.34-.7c-.09-.18-.28-.55-.37-.73l-.42-.82c-.1-.18-.29-.55-.39-.73l-.37-.7c.04-2.02-.42-4.5-2.77-4.93l-.15-.72c.27-1.9-.58-3.69-2.24-4.65l-.28-.63-.31-.66-.41-.9c-.06-.14-.19-.43-.25-.57l-.58-1.5c-.25-.56-.77-1.67-1.03-2.23l.07-.75c-.28-.54-.83-1.62-1.11-2.15l.08-.82c-.28-.53-.84-1.61-1.12-2.15l.07-.78c-.24-.57-.72-1.71-.96-2.27l.11-.8c.39-1.39-.02-2.47-1.24-3.22l.09-.86c-.23-.57-.68-1.72-.91-2.3-.04-.37-.13-1.1-.17-1.47.58-1.52.41-3.27-.85-4.39l-.18-.79c.84-2.04.58-4.3-.83-6.01l-.04-.23c.12-3.19-.25-6.36-1-9.45v-13.95c1-5.32 1.22-10.74 1.94-16.1l.06-.31c1.3-1.12 1.49-2.89.9-4.42l.12-1.42.97-2.26-.11-.88c1.21-.75 1.63-1.82 1.24-3.19l-.11-.8c.24-.57.72-1.7.96-2.26l-.08-.8c.28-.54.85-1.62 1.13-2.15l-.08-.91c.28-.54.84-1.61 1.12-2.15l-.07-.69c.26-.56.77-1.68 1.02-2.23l.58-1.52c.07-.14.19-.43.25-.57l.42-.91c.08-.16.23-.49.31-.66l.28-.63c1.67-.95 2.55-2.76 2.17-4.65l.23-.68c2.2-.66 3-2.8 2.75-4.93l.33-.66c.1-.17.28-.5.37-.67l.48-.92c.08-.13.22-.4.29-.54l.62-1.09c1.44-.53 2.11-1.57 2.01-3.12l.32-.57c.06-.11.19-.33.26-.44.32-.57.97-1.71 1.29-2.28 1.58.05 2.28-.69 2.09-2.22l-.09-.73c1.28-.17 1.96-.96 2.05-2.38.63-.82 1.26-1.63 1.88-2.45 1.66-.47 2.79-1.8 3.2-3.44.52-.85 1.08-1.67 1.65-2.48 3.06-2.66 5.88-5.57 8.6-8.58 1.14-.94 2.27-1.88 3.4-2.83 1.81-.16 3.27-1.41 3.53-3.24l1.61-.56c1.42-.26 2.14-1.07 2.15-2.43.43-.13 1.3-.38 1.74-.5 1.37-.11 2.24-.83 2.58-2.15l.34-.03c1.45.07 2.34-.6 2.65-2.02l.37-.05c2.12.04 3.71-1.41 4.88-3.02l.57-.34c.1-.06.32-.19.43-.25l.32-.19c2.92-1.25 5.77-2.65 8.51-4.27l.23-.07c1.42-.05 2.78-.64 3.55-1.88l.67.03c.64-.27 1.92-.82 2.56-1.1l.73-.3c.15-.06.46-.19.61-.25l.7-.29c.66-.24 1.97-.73 2.63-.97l.74-.16c.58-.22 1.73-.67 2.31-.89l.8.05c.54-.28 1.64-.84 2.18-1.12l.76.09c1.37.44 2.47.08 3.28-1.08l.62-.03c1.51.56 3.23.36 4.31-.91l.6-.1c1.36.5 2.51.2 3.43-.91l.83-.16c2.07.68 4.31.54 6.12-.76M30.23 120.98c-1.34 11.37 1.74 23.15 8.52 32.39 8.55 12.07 23.08 19.45 37.86 19.38-.13-8.3.04-16.6-.09-24.9-11.24.15-21.6-9.6-21.66-20.92-.86-11.6 9.42-22.72 21.11-22.46 34.69-.06 69.38-.02 104.07-.02 9.08-.31 17.63 6.06 20.55 14.55 2.27 6.71 1.16 14.59-3.27 20.2-4.02 5.41-10.61 8.53-17.31 8.7.09 8.27.15 16.54-.03 24.81 16.65.2 32.89-9.4 40.81-24.02 7.69-13.55 7.78-31.06.28-44.7-8.13-15.47-25.55-25.51-43.05-24.47-34.64.03-69.28-.02-103.92.03-22.15.62-41.98 19.36-43.87 41.43m84.19 5.12c.14 6.55-.03 13.11.08 19.67.08 5.59-.29 11.21.19 16.79-.47 5.01-.01 10.04-.38 15.04l.2-.07c8.27-.09 16.69.56 24.87-.21.51-5.93-.04-11.9-.19-17.84.31-5.02.41-10.08.06-15.09.3-6.07.02-12.14.18-18.21-8.34-.05-16.68.01-25.01-.08Z"/><path fill="#2c2c2c" opacity=".44" d="M144.31 1.04c3.76.03 7.52.49 11.05 1.86-3.71-.43-7.42-.94-11.05-1.86Z"/><path fill="#343434" opacity=".6" d="M101.71 2.94c.91-1.12 2.05-1.43 3.43-.91-.92 1.11-2.07 1.41-3.43.91Z"/><path fill="#353535" opacity=".58" d="M96.8 3.95c1.1-1.26 2.8-1.43 4.31-.91-1.08 1.27-2.8 1.47-4.31.91Z"/><path fill="#292929" opacity=".51" d="M155.65 2.97c3.74.25 7.35 1.33 10.76 2.84-3.65-.7-7.29-1.48-10.76-2.84Z"/><path fill="#343434" opacity=".41" d="M92.9 5.06c.8-1.19 1.9-1.55 3.28-1.08-.81 1.16-1.91 1.52-3.28 1.08Z"/><path fill="#393939" opacity=".45" d="M89.96 6.09c.54-.28 1.64-.84 2.18-1.12-.54.28-1.64.84-2.18 1.12Z"/><path fill="#3b3b3b" opacity=".53" d="M86.85 6.93c.58-.22 1.73-.67 2.31-.89-.58.22-1.73.67-2.31.89Z"/><path fill="#282828" opacity=".63" d="M166.59 5.87c3.12.62 6.13 1.67 8.96 3.13-3.12-.64-6.17-1.6-8.96-3.13Z"/><path fill="#3c3c3c" opacity=".47" d="M83.48 8.06c.66-.24 1.97-.73 2.63-.97-.66.24-1.97.73-2.63.97Z"/><g fill="#3f3f3f"><path opacity=".54" d="M82.17 8.6c.15-.06.46-.19.61-.25-.15.06-.46.19-.61.25ZM182.96 12.23c.22.11.66.34.89.45-.23-.11-.67-.34-.89-.45ZM65.38 16.49l.22-.11c-.11.06-.33.19-.43.25l.21-.14ZM248.39 173.82c.06-.15.19-.46.25-.61-.06.15-.19.46-.25.61ZM232.48 203.5l.21-.23-.18.27-.2.24.17-.28Z"/></g><g fill="#333"><path opacity=".62" d="M78.88 10ZM247.04 79.9c.26.65.8 1.95 1.06 2.6-.26-.65-.8-1.95-1.06-2.6ZM6.94 85.99c.28-.54.84-1.61 1.12-2.15-.28.54-.84 1.61-1.12 2.15ZM246.99 177.1l1.12-2.56-1.12 2.56Z"/></g><path fill="#2b2b2b" opacity=".4" d="M175.87 9.11c1.9-.46 3.8.31 4.81 1.99-1.85.09-3.6-.59-4.81-1.99Z"/><path fill="#272727" opacity=".33" d="M74.66 11.85c.03-1.81 2.11-2.28 3.55-1.88-.77 1.24-2.13 1.83-3.55 1.88Z"/><g fill="#3f3f3f"><path opacity=".44" d="M181.35 11.44ZM20.42 58.8ZM238.38 194.76c.07-.13.2-.4.27-.53-.07.13-.2.4-.27.53ZM188.79 241.82Z"/></g><path fill="#222" opacity=".46" d="M65.92 16.19c2.62-1.81 5.34-3.6 8.51-4.27-2.74 1.62-5.59 3.02-8.51 4.27Z"/><g fill="#3f3f3f"><path opacity=".48" d="M184.89 13.2c.26.12.78.38 1.04.5-.26-.12-.78-.38-1.04-.5ZM187 14.24l.43.17.25.21c-.17-.09-.51-.29-.68-.38ZM238.39 62.23c.06.13.19.39.26.53-.07-.14-.2-.4-.26-.53ZM17.35 63.79l.12-.21c-.07.14-.21.41-.29.54l.17-.33ZM17.19 192.92c.09.18.28.55.37.73-.09-.18-.28-.55-.37-.73ZM187.11 242.7c.19-.1.58-.3.78-.41-.2.11-.59.31-.78.41ZM183.23 244.6Z"/></g><path fill="#232323" opacity=".58" d="M188.1 14.86c2.61 1.05 5.05 2.43 7.36 4.02-2.69-.86-5.09-2.36-7.36-4.02Z"/><path fill="#232323" opacity=".51" d="M59.72 19.99c.52-2.24 2.96-2.67 4.88-3.02-1.17 1.61-2.76 3.06-4.88 3.02Z"/><g fill="#282828"><path opacity=".7" d="M195.76 18.99c1.39.13 2.19.83 2.4 2.09-1.51.07-2.31-.63-2.4-2.09ZM56.83 234.92c1.37-.04 2.22.65 2.54 2.05-1.5-.02-2.34-.7-2.54-2.05Z"/></g><g fill="#242424"><path opacity=".68" d="M56.7 22.06c.37-1.34 1.26-2.01 2.65-2.02-.31 1.42-1.2 2.09-2.65 2.02ZM21.97 56.08c.22-1.29.91-2.03 2.09-2.22.19 1.53-.51 2.27-2.09 2.22Z"/></g><path fill="#262626" opacity=".71" d="M198.68 21.1c1.53-.14 2.38.51 2.55 1.95-1.34-.02-2.19-.68-2.55-1.95Z"/><path fill="#292929" opacity=".68" d="M53.78 24.24c.24-1.47 1.1-2.18 2.58-2.15-.34 1.32-1.21 2.04-2.58 2.15Z"/><path fill="#1e1e1e" opacity=".48" d="M201.59 23.21c3.08 1.17 5.59 3.35 7.84 5.69-2.77-1.67-5.32-3.66-7.84-5.69Z"/><g fill="#474443"><path opacity=".46" d="M49.89 27.17c-.01-1.4.7-2.21 2.15-2.43-.01 1.36-.73 2.17-2.15 2.43ZM44.75 30.97c.45-1.69 1.76-2.99 3.53-3.24-.26 1.83-1.72 3.08-3.53 3.24ZM27.9 48.3c.17-1.72 1.24-3.58 3.2-3.44-.41 1.64-1.54 2.97-3.2 3.44ZM0 112.72c.66-2.44 1.35-4.87 1.94-7.33-.72 5.36-.94 10.78-1.94 16.1v-8.77ZM1021.45 147.56c5.18-4.3 12.38-2.49 18.55-2.87 15.63-.37 31.34.83 46.91-.77 1.49.14 3 .36 4.52.51-3.94 1.61-8.26 1.92-12.46 1.94-15.99-.01-31.99-.02-47.98-.01-3.26-.07-6.28 1.8-9.54 1.2ZM228.87 208.33c.04-1.42.75-2.32 2.13-2.68-.03 1.44-.74 2.34-2.13 2.68ZM113.17 256.05c5.62.05 11.2 1.02 16.83.81 4-.06 7.96-.69 11.95-.79l1.47.93h-28.64l-1.61-.95Z"/></g><path fill="#1d1d1d" opacity=".6" d="M209.68 29.1c2.92 1.9 5.47 4.3 7.7 6.97-2.96-1.86-5.44-4.32-7.7-6.97Z"/><path fill="#1d1d1d" opacity=".17" d="M32.75 42.38c2.04-3.59 4.96-6.6 8.6-8.58-2.72 3.01-5.54 5.92-8.6 8.58Z"/><path fill="#1b1b1b" opacity=".74" d="M218.89 37.6c3.03 2.58 5.78 5.48 8.09 8.72-3.08-2.52-6.14-5.18-8.09-8.72Z"/><path fill="#202020" opacity=".51" d="M228.06 47.66c1.69.49 2.87 1.92 2.92 3.7-1.74-.43-2.93-1.9-2.92-3.7Z"/><path fill="#242424" opacity=".24" d="M23.97 53.13c-.16-1.39.53-2.18 2.05-2.38-.09 1.42-.77 2.21-2.05 2.38Z"/><path fill="#242424" opacity=".26" d="M232.03 52.72c1.42.29 2.12 1.11 2.09 2.47-1.35-.15-2.05-.97-2.09-2.47Z"/><path fill="#232323" opacity=".3" d="M234.13 55.65c1.35.33 2 1.2 1.95 2.6-1.41-.32-2.06-1.19-1.95-2.6Z"/><path fill="#242424" opacity=".29" d="M236.12 58.62c1.42.49 2.09 1.5 2 3.02-1.3-.6-1.97-1.61-2-3.02Z"/><g fill="#fff"><path d="M305.14 59.27c14.62-.01 29.24-.02 43.87 0 1.76-.39 2.31 1.44 3.18 2.54 3.22 5.75 6.72 11.34 10.09 17 .98 1.67 1.99 3.33 3 4.99 1.97 3.33 3.94 6.66 5.98 9.96.46.82.93 1.65 1.41 2.47.51.84 1.04 1.67 1.56 2.5 2.95 5.05 5.98 10.05 8.99 15.06.98 1.68 1.97 3.35 2.99 5 4 6.68 7.97 13.36 12.01 20.01.47.83.95 1.67 1.44 2.5.5.85 1.01 1.71 1.52 2.56.49.73.99 1.45 1.5 2.18 17.25-28.94 34.63-57.8 51.86-86.75 15.09-.08 30.19 0 45.28-.03l-.01.61c-.12 46.34-.04 92.7-.04 139.04-12.31.05-24.63-.02-36.94.04l-.57.01c.02-27.53-.01-55.06.01-82.59.02-.91.05-2.72.07-3.62-17.45 28.51-34.16 57.49-51.35 86.17-5.72-.02-11.45.03-17.17.01-15.97-26.91-32.03-53.77-47.84-80.77-.83-1.48-1.72-2.92-2.63-4.35-.22-.33-.65-.99-.87-1.32-.4 28.78-.02 57.58-.19 86.38-12.17.13-24.34-.26-36.5.2l-.62.03c-.04-46.61.01-93.22-.03-139.83ZM521.22 59.27c100.46-.06 200.92.02 301.39-.05.25 10.33.02 20.66.12 30.99-18.31.13-36.62.07-54.92.04-.13 36.22-.05 72.44-.04 108.66-12.45.21-24.92-.37-37.34.32-.18-35.81-.1-71.63-.04-107.44l.09-1.36c-69.74.03-139.52-.13-209.27.05.03-10.41.01-20.81.01-31.21ZM862.73 59.25c16.83.11 33.67-.16 50.49.13.76 1.43 1.28 2.97 1.87 4.48.28 1.02.6 2.03.95 3.03.33.99.67 1.98 1.03 2.96.32 1 .66 2 1.03 3 .32.99.66 1.98 1.02 2.97.31 1.01.65 2.01 1.02 3.01.33 1.02.68 2.02 1.06 3.03 1.1 3.56 2.58 7 3.44 10.63l.71.03c.04.74.1 2.21.14 2.95l.69.08c.21 1.12.48 2.24.8 3.34.36.99.72 1.98 1.09 2.97.31 1 .65 2 1.01 2.99.32 1 .66 2 1.03 2.99.32 1 .66 1.99 1.03 2.99.32 1 .67 2 1.05 3 1.43 4.57 3.26 9.02 4.48 13.66l.52.03c.18 1.14.44 2.27.79 3.38.36.99.72 1.98 1.09 2.98.31 1 .65 1.99 1.01 2.99.32.99.66 1.98 1.03 2.97.31 1 .65 2 1.02 2.99.32 1.01.66 2.02 1.03 3.02.32.99.67 1.98 1.05 2.97.13.53.38 1.59.51 2.13 5.24 16.05 10.94 31.96 16.37 47.96-12.55.06-25.1-.03-37.65.05-11.27-34.32-23.18-68.44-34.51-102.74-.36-.89-.75-1.76-1.13-2.62-11.96 35.08-23.71 70.24-35.66 105.32-12.16.12-24.33-.27-36.48.22l-.7.04c15.75-46.7 31.83-93.3 47.77-139.93ZM977.4 59.28c33.23-.04 66.46-.03 99.69-.01 13.88.09 28.59 4.76 37.74 15.69 5.48 7.6 9.28 16.59 9.68 26.04.18 10.21-3.47 20.34-9.83 28.3-7.07 8.15-17.28 12.81-27.77 14.62-15.57 1.6-31.28.4-46.91.77-6.17.38-13.37-1.43-18.55 2.87l-.73-.56c-.05.32-.13.97-.17 1.29-3.24.63-4.83 4.29-4.2 7.33l-.81-.26c.14 4.08.12 8.18.02 12.27 36.35.45 72.72.07 109.09.19-.56 10.36-.19 20.77-.2 31.15l-.04.5c-3.77-.74-7.61-.57-11.41-.55-45.03.03-90.06-.02-135.08.03h-.53c.02-14.32.02-28.63 0-42.95-.18-12.14 5.39-24.32 14.92-31.91 9.15-7.37 21.13-10.27 32.69-10.48 15.66-.01 31.33-.01 47 .01 4.16.08 8.4-1.37 11.52-4.14 3.46-3.2 3.62-8.66 1.71-12.72-2.51-4.17-7.65-5.59-12.16-6.18-31.87-.34-63.77-.17-95.65-.09-.06-10.41 0-20.81-.02-31.21ZM1146.03 59.27c12.52.03 25.04-.1 37.56.06-.5 46.51.06 93.13-.37 139.59l-.28.4c-12.03-.46-24.08-.13-36.11-.17l-.71.01c-.45-27.06-.07-54.14-.19-81.21.07-19.56-.14-39.13.1-58.68ZM1204.82 59.26c49.17.11 98.35-.21 147.51.15-.01 10.34-.05 20.67.03 31-30.12-.01-60.25 0-90.37 0-6.41.23-12.87-.56-19.24.28.29 7.56-.37 15.16.44 22.69l.02.19c15.25.08 30.5.01 45.75.04 11.08.11 22.46-.83 33.18 2.69 10.44 2.99 19.73 10.04 24.97 19.63.25.48.76 1.45 1.01 1.93.53 1.42 1.11 2.83 1.66 4.25 1 2.89 1.86 5.85 1.99 8.93 1.09 12.54-3.15 25.68-12.1 34.66-5.4 5.51-12.52 8.97-19.85 11.11-10.37 2.92-21.23 1.93-31.86 2.12-27.41.12-54.82-.25-82.21.19l-.95.05c-.01-10.45-.03-20.89.01-31.34 28.08-.02 56.16 0 84.24-.01 7.29-.05 15.55.83 21.64-4.06 5.24-4.57 3.74-14.16-2.82-16.76-1.14-.3-2.26-.58-3.38-.83l.05-.65c-13.84-.69-27.7-.11-41.54-.24-1.64-.29-3.89.71-5-.87l-.77.75c-13.41.18-26.82-.07-40.23.12-4.07-.06-8.17.16-12.2-.51-.01-28.5-.04-57.01.02-85.51ZM1408.01 60.67c7.89-1.87 16.03-1.34 24.06-1.41 14 .03 28.01-.05 42.02.04 13.57.25 27.72 5.13 36.69 15.7 6.1 8.03 9.61 17.95 9.61 28.06.03 16.99-.01 33.98.02 50.98.06 10.05-2.76 20.34-9.02 28.32-5.8 7.47-14.41 12.36-23.5 14.65-8.46 2.26-17.28 1.88-25.94 1.92-14.04-.05-28.08.1-42.12-.08-8.15-.04-16.17-1.95-23.62-5.17-.8-.38-2.41-1.12-3.22-1.5-8.07-5.1-14.27-12.95-17.19-22.06-3.42-9.69-2.22-20.07-2.43-30.13 0-12 .01-23.99 0-35.99-.1-10.36 3.06-20.92 9.74-28.94 6.26-7.58 15.38-12.34 24.9-14.39m9.66 32.27c-4.84 2.86-6.86 8.74-6.91 14.11-.07 14.32 0 28.64-.03 42.97 0 5.04 1.1 10.78 5.4 13.97 3.31 2.67 7.61 3.84 11.83 3.81 12.34.06 24.69.01 37.03.02 4.54.06 9.38-.83 12.87-3.94 3.66-3.17 5.05-8.19 5.04-12.89.05-14.31-.02-28.63.01-42.94.06-4.31-.87-8.8-3.66-12.19-2.98-4.15-8.37-5.48-13.22-5.59-11.32-.07-22.65.02-33.97-.03-4.88-.07-10.14-.04-14.39 2.7ZM1578.82 60.24c6.98-1.36 14.12-.91 21.2-.98 29.56.02 59.14-.04 88.71.03l.3.44c-.19 10.16-.1 20.33-.08 30.49-30.3.02-60.61.02-90.91 0-4.68-.01-9.54.65-13.6 3.11-5.85 3.37-6.32 13.15-.64 16.91 3.24 2.27 7.2 3.53 11.19 3.38 14.99-.03 29.99 0 44.99-.02 10.34-.02 20.95 2.04 29.89 7.42 7.02 4.21 12.55 10.69 15.84 18.16.45 1.23.95 2.47 1.46 3.7a52.406 52.406 0 0 1 2.21 17.95c-1.77 3.45-2.18 7.37-3.64 10.92-3.06 7.87-8.58 14.79-15.73 19.28-2.85 1.74-5.87 3.16-8.82 4.69-.36.1-1.08.31-1.44.41-.85.18-1.67.37-2.45.58-10.86 3.08-22.24 2.02-33.37 2.22-27.25.15-54.51-.3-81.75.23l-.43-.25c.03-10.36-.03-20.72.03-31.08 28.4-.02 56.8 0 85.2-.01 6.59.01 13.79.57 19.6-3.2 4.24-2.53 5.13-8.31 3.48-12.64-1.83-4.04-6.41-5.42-10.27-6.72-2.48-1.07-5.16-1.32-7.8-1.2-17.46.26-34.94-.2-52.39.15l-.73-.02c-2.95-.77-5.91-1.44-8.79-2.36-1.43-.56-2.84-1.11-4.23-1.65-12.73-5.84-22.06-18.35-23.73-32.29-1.52-10.56 1.61-21.54 7.58-30.29 6.64-9.66 17.76-15.4 29.12-17.36ZM30.23 120.98c1.89-22.07 21.72-40.81 43.87-41.43 34.64-.05 69.28 0 103.92-.03 17.5-1.04 34.92 9 43.05 24.47 7.5 13.64 7.41 31.15-.28 44.7-7.92 14.62-24.16 24.22-40.81 24.02.18-8.27.12-16.54.03-24.81 6.7-.17 13.29-3.29 17.31-8.7 4.43-5.61 5.54-13.49 3.27-20.2-2.92-8.49-11.47-14.86-20.55-14.55-34.69 0-69.38-.04-104.07.02-11.69-.26-21.97 10.86-21.11 22.46.06 11.32 10.42 21.07 21.66 20.92.13 8.3-.04 16.6.09 24.9-14.78.07-29.31-7.31-37.86-19.38-6.78-9.24-9.86-21.02-8.52-32.39Z"/><path d="M521.18 113.65c44.39-.1 88.78-.03 133.16-.03.22 10.35-.01 20.7-.02 31.06-31.91.02-63.81 0-95.72.01 0 7.75-.03 15.5.02 23.25 28.47.27 56.94.03 85.41.13 3.44.03 6.88-.04 10.32-.26.01 10.35.14 20.7.02 31.05-44.19.18-88.37-.01-132.56.09l-.6.01c0-28.44.06-56.87-.03-85.31Z"/></g><path fill="#232323" opacity=".67" d="M18.09 62.49c.08-1.42.75-2.46 2.01-3.12.1 1.55-.57 2.59-2.01 3.12Z"/><path fill="#3b3939" opacity=".35" d="M1184.09 59.67c.83.92 1.22 2.01 1.19 3.26 0 42.38-.01 84.77 0 127.15-.02 3.5.28 7.05-.6 10.48-12.36-.05-24.74.22-37.09-.11-.19-.32-.57-.98-.76-1.3 12.03.04 24.08-.29 36.11.17l.28-.4c.25-.3.75-.91 1-1.21-.74-8.53-.11-17.15-.31-25.71-.03-34.01-.17-68 .01-102.01.09-3.44-.67-6.92.17-10.32Z"/><path fill="#393838" opacity=".32" d="M1352.7 68.96c0-3.04-.28-6.17.79-9.08.42 10.58.19 21.2.12 31.8-4.49.95-9.07.47-13.6.56-31.84.08-63.68-.15-95.51.11.05 5.89.04 11.78.07 17.68.18 1.4-.28 2.52-1.38 3.35-.81-7.53-.15-15.13-.44-22.69 5.73.61 11.45-.46 17.2-.27 30.95.07 61.9-.04 92.86.04-.17-7.17-.06-14.33-.11-21.5Z"/><path fill="#5b5857" opacity=".55" d="m1689.03 59.73.76 1.11c.09 10.2-.02 20.4.06 30.6-30.92.45-61.86-.01-92.79.22-4.56.33-9.5 1.19-13.03 4.32-3.85 3.74-3.3 10.2-.23 14.26-5.68-3.76-5.21-13.54.64-16.91 4.06-2.46 8.92-3.12 13.6-3.11 30.3.02 60.61.02 90.91 0-.02-10.16-.11-20.33.08-30.49Z"/><path fill="#252424" opacity=".17" d="m1689.79 60.84 1.21-1.09v31.53l-1.15.16c-.08-10.2.03-20.4-.06-30.6Z"/><g fill="#212121"><path opacity=".47" d="M238.93 63.35c1.96 1.11 2.95 3.12 3.1 5.33-1.85-1.22-2.9-3.15-3.1-5.33ZM238.94 193.63c.22-2.18 1.27-4.11 3.11-5.34-.14 2.21-1.13 4.22-3.11 5.34Z"/></g><g fill="#343434"><path opacity=".71" d="M16.33 65.71ZM16.38 191.37c.1.18.29.55.39.73-.1-.18-.29-.55-.39-.73Z"/></g><path fill="#202020" opacity=".68" d="M13.25 71.3c.26-1.96 1.19-3.71 2.75-4.93.25 2.13-.55 4.27-2.75 4.93Z"/><g fill="#333"><path opacity=".28" d="M242.31 69.27c.06.14.18.42.25.55-.07-.13-.19-.41-.25-.55ZM242.31 187.72c.06-.13.18-.39.24-.53-.06.14-.18.4-.24.53Z"/></g><path fill="#272727" opacity=".64" d="M242.83 70.46c1.03 1.04 2.17 2.28 2.07 3.86-1.89-.18-2.21-2.34-2.07-3.86Z"/><path fill="#252525" opacity=".62" d="M10.85 76.63c-.08-1.84.69-3.55 2.17-4.65.38 1.89-.5 3.7-2.17 4.65Z"/><g fill="#262626"><path opacity=".36" d="M244.93 74.86c2.02.33 2.38 2.57 2.09 4.25-1.27-1.05-2.25-2.54-2.09-4.25ZM244.92 182.11c-.12-1.71.84-3.17 2.07-4.25.37 1.69-.04 3.94-2.07 4.25Z"/></g><path fill="#646261" opacity=".56" d="M1114.83 74.96c3.54 2.69 5.38 6.96 7.29 10.85 6.37 13.94 4.44 31.69-5.46 43.43l-1.98.06c6.36-7.96 10.01-18.09 9.83-28.3-.4-9.45-4.2-18.44-9.68-26.04Z"/><path fill="#474444" opacity=".47" d="M1510.78 75c3.3 2.2 5.02 5.98 6.8 9.39 6.03 12.28 4.38 26.35 4.65 39.58-.28 12.79.67 25.62-.76 38.36-.96 8.68-4.71 17.03-10.47 23.58-8.89 9.6-22.15 14.13-34.99 14.52-17.99.06-35.98.02-53.97.02-9.37.17-18.84-1.98-27.1-6.44.32-.08.95-.25 1.27-.33 7.45 3.22 15.47 5.13 23.62 5.17 14.04.18 28.08.03 42.12.08 8.66-.04 17.48.34 25.94-1.92 9.09-2.29 17.7-7.18 23.5-14.65 6.26-7.98 9.08-18.27 9.02-28.32-.03-17 .01-33.99-.02-50.98 0-10.11-3.51-20.03-9.61-28.06Z"/><g fill="#393939"><path opacity=".65" d="M10.26 77.92c.08-.16.23-.49.31-.66-.08.17-.23.5-.31.66ZM10.26 179.08l.31.66-.31-.66Z"/></g><g fill="#3c3c3c"><path opacity=".39" d="m9.68 79.16.16-.33c-.06.14-.18.43-.25.57l.09-.24ZM9.6 177.61c.06.14.19.43.25.57l-.16-.33-.09-.24Z"/></g><g fill="#383838"><path opacity=".42" d="M7.99 83.15ZM7.99 173.88c.26.56.78 1.67 1.03 2.23-.25-.56-.77-1.67-1.03-2.23Z"/></g><g fill="#3e3e3e"><path opacity=".58" d="M248.39 83.19c.07.15.19.45.26.61-.07-.16-.19-.46-.26-.61ZM184.98 243.77c.29-.14.87-.43 1.16-.57-.29.14-.87.43-1.16.57ZM77.36 246.46l.24.09.25.1c-.12-.05-.37-.14-.49-.19ZM176.43 247.62c.1-.06.32-.16.43-.21l-.22.11-.21.1Z"/></g><g fill="#3a3a3a"><path opacity=".44" d="M248.95 84.5ZM3.07 157.78c.23.58.68 1.73.91 2.3-.23-.57-.68-1.72-.91-2.3Z"/></g><path fill="#313131" opacity=".59" d="M5.89 89.05Z"/><g fill="#373737"><path opacity=".53" d="M249.93 87.94ZM249.94 169.05c.28-.55.83-1.64 1.11-2.19-.28.55-.83 1.64-1.11 2.19Z"/></g><g fill="#3c3c3c"><path opacity=".5" d="M5.01 92.11ZM156.83 253.88Z"/></g><path fill="#514d4d" opacity=".51" d="M767.81 90.25c18.3.03 36.61.09 54.92-.04l1.35-.01c-.24 2.01-2.72 1.24-4.05 1.5-16.03-.05-32.07-.01-48.1-.03-1.43-.27-3.19.65-2.98 2.28-.14 35.32.09 70.64-.11 105.95-12.78.12-25.77 1.64-38.41-.67 12.42-.69 24.89-.11 37.34-.32-.01-36.22-.09-72.44.04-108.66Z"/><path fill="#585555" opacity=".53" d="M1417.67 92.94c4.25-2.74 9.51-2.77 14.39-2.7 11.32.05 22.65-.04 33.97.03 4.85.11 10.24 1.44 13.22 5.59-4.97-3.68-11.23-4.62-17.26-4.25-10.68.08-21.35-.01-32.02.03-5.28.09-11.2 1.37-14.5 5.87-3.81 4.98-3.15 11.62-3.59 17.52.17 13.18-.52 26.4.6 39.56.2 3.44 1.91 6.51 3.65 9.4-4.3-3.19-5.4-8.93-5.4-13.97.03-14.33-.04-28.65.03-42.97.05-5.37 2.07-11.25 6.91-14.11Z"/><g fill="#333"><path opacity=".36" d="M250.95 90.99ZM250.96 165.97Z"/></g><path fill="#3b3939" opacity=".32" d="M521.72 91.13c16.07-.97 32.17-.64 48.28-.69 33.34.04 66.69-.04 100.04.03 9.3.67 18.65.4 27.98.39 10.8-.77 21.64-.26 32.46-.43l-.09 1.36c-2.39.75-4.93.4-7.38.46-65.68.04-131.36-.08-197.04.02-1.51.02-3.08-.08-4.25-1.14Z"/><path fill="#424040" opacity=".35" d="M978.42 90.98c4.82-.77 9.72-.38 14.59-.49 26.68.03 53.38-.06 80.06.09 4.51.59 9.65 2.01 12.16 6.18-3.84-2.68-8.28-4.73-13.06-4.53-30.07-.04-60.13-.02-90.2 0-1.37.09-2.55-.32-3.55-1.25Z"/><g fill="#2e2e2e"><path opacity=".61" d="M3.88 96.1c-.41-1.4 0-2.46 1.24-3.19.39 1.37-.03 2.44-1.24 3.19ZM3.89 160.94c1.22.75 1.63 1.83 1.24 3.22-1.22-.76-1.63-1.83-1.24-3.22Z"/></g><path fill="#363636" opacity=".39" d="M251.93 93.91c1.18.83 1.54 1.93 1.06 3.32-1.15-.84-1.5-1.94-1.06-3.32Z"/><path fill="#5d5a59" opacity=".58" d="M887.8 93.6c.38.86.77 1.73 1.13 2.62-5.32 13.8-9.49 28.02-14.46 41.95-6.7 20.46-14.13 40.7-20.38 61.3-8.69.83-17.44.17-26.15.38-4.09-.23-8.34.66-12.28-.71 12.15-.49 24.32-.1 36.48-.22 11.95-35.08 23.7-70.24 35.66-105.32Z"/><g fill="#3a3a3a"><path opacity=".44" d="m3.02 99.24.97-2.26-.97 2.26ZM248.94 172.5l1.03-2.62-1.03 2.62Z"/></g><g fill="#2f2f2f"><path opacity=".53" d="M252.93 97.91c1.34 1 1.59 2.72 1.06 4.24-1.26-1.05-1.54-2.73-1.06-4.24ZM252.93 159.06c-.48-1.52-.19-3.19 1.07-4.24.52 1.52.28 3.23-1.07 4.24Z"/></g><g fill="#373737"><path opacity=".56" d="M2 105.08c-.46-1.55-.3-3.26.9-4.42.59 1.53.4 3.3-.9 4.42ZM2.05 151.92c1.26 1.12 1.43 2.87.85 4.39-1.22-1.15-1.36-2.87-.85-4.39Z"/></g><path fill="#313131" opacity=".51" d="M253.98 102.88c1.31 1.03 1.55 2.73 1 4.23-1.27-1.05-1.51-2.73-1-4.23Z"/><g fill="#333"><path opacity=".53" d="M255.19 107.96c1.34 2.09 1.27 4.58.77 6.92-1.48-2.05-1.54-4.6-.77-6.92ZM255.17 149.08c-.73-2.34-.69-4.9.78-6.95.51 2.35.58 4.85-.78 6.95Z"/></g><path fill="#959291" opacity=".78" d="M342.48 112.49c.22.33.65.99.87 1.32-.22 28.5-.03 57-.1 85.49-12.12.05-24.24.14-36.36-.04l-1.1-.19c12.16-.46 24.33-.07 36.5-.2.17-28.8-.21-57.6.19-86.38Z"/><path fill="#2f2e2d" opacity=".26" d="M343.25 199.3c.07-28.49-.12-56.99.1-85.49.91 1.43 1.8 2.87 2.63 4.35-1.94.84-1.26 3.17-1.47 4.8-.03 25.83.26 51.67-.14 77.49-12.82.55-25.7.35-38.53.11l1.05-1.3c12.12.18 24.24.09 36.36.04Z"/><path fill="#585454" opacity=".56" d="M410.99 198.92c17.19-28.68 33.9-57.66 51.35-86.17-.02.9-.05 2.71-.07 3.62-17.05 27.78-33.17 56.13-50.15 83.95-5.03.06-10.06.1-15.09.06-1.31.17-2.47-.37-3.21-1.45 5.72.02 11.45-.03 17.17-.01Z"/><path fill="#3a3a3a" opacity=".49" d="M256.06 115.46c1.47 5.4.83 11.02.98 16.55.11 3.19-.2 6.39-.98 9.5.05-8.69.05-17.37 0-26.05Z"/><path fill="#00deb3" d="M114.42 126.1c8.33.09 16.67.03 25.01.08-.16 6.07.12 12.14-.18 18.21-.24-1.22-.51-2.42-.72-3.63l-.04-.99c-.1-2.97-.33-5.94-.68-8.89-7.8 1.58-14.01 7-21.33 9.83-.5 3.24-.74 6.5-.92 9.77l-.2 3.19c-.42-2.62-.74-5.26-.86-7.9-.11-6.56.06-13.12-.08-19.67Z"/><path fill="#5a5756" opacity=".55" d="M1086.91 143.92c10.49-1.81 20.7-6.47 27.77-14.62l1.98-.06c-5.85 8.16-15.45 13.54-25.23 15.19-1.52-.15-3.03-.37-4.52-.51Z"/><path fill="#00bbc1" d="M116.48 140.71c7.32-2.83 13.53-8.25 21.33-9.83.35 2.95.58 5.92.68 8.89-8.03 2.79-14.7 8.53-22.93 10.71.18-3.27.42-6.53.92-9.77Z"/><path fill="#313131" opacity=".58" d="M0 135.44c.75 3.09 1.12 6.26 1 9.45l-1-1.41v-8.04Z"/><path fill="#38a6cb" d="M115.56 150.48c8.23-2.18 14.9-7.92 22.93-10.71l.04.99c-.2 1.66-.04 3.46-.8 5-1.41 1.4-3.31 2.15-5.05 3.05-5.67 2.61-11.08 5.73-16.81 8.21-.18-1.12-.35-2.24-.51-3.35l.2-3.19Z"/><path fill="#6c8bd7" d="M138.53 140.76c.21 1.21.48 2.41.72 3.63.35 5.01.25 10.07-.06 15.09l-.11-.93c-.31-3.15-.49-6.31-.56-9.47-.17 1.88-.34 3.75-.47 5.64-4.7 2.39-9.2 5.16-14.02 7.32-2.63 1.34-5.52 2.38-7.73 4.41-.71 1.33-.68 2.9-.93 4.37.2-2.77-.12-5.54-.68-8.26-.48-5.58-.11-11.2-.19-16.79.12 2.64.44 5.28.86 7.9.16 1.11.33 2.23.51 3.35 5.73-2.48 11.14-5.6 16.81-8.21 1.74-.9 3.64-1.65 5.05-3.05.76-1.54.6-3.34.8-5Z"/><path fill="#bcb9b8" opacity=".9" d="M1579.6 144.21c17.45-.35 34.93.11 52.39-.15 2.64-.12 5.32.13 7.8 1.2-18.64.27-37.29.24-55.93.02-1.43-.4-2.84-.78-4.26-1.07Z"/><path fill="#2a2a2a" opacity=".66" d="M1.04 145.12c1.41 1.71 1.67 3.97.83 6.01-1.24-1.78-1.36-3.96-.83-6.01Z"/><path fill="#1e1d1d" opacity=".13" d="M1205.48 146.04c14.15-.93 28.32.4 42.51-.18 16.99-1.21 34.02.93 51.02-.21 1.69.09 3.9-.37 5.07 1.25-29.35.28-58.7-.01-88.05.13-3.49-.29-7.39.81-10.55-.99Z"/><path fill="#bf6dff" d="M138.05 154.72c.13-1.89.3-3.76.47-5.64.07 3.16.25 6.32.56 9.47-.19 3.16-.36 6.32-.18 9.49.01 1.64.35 3.56-.81 4.93.06-2.65.12-5.28-.01-7.92-.22-3.44-.26-6.89-.03-10.33Z"/><path fill="#5b5857" opacity=".58" d="M1352.15 149.38c3.69 16.61-4.26 35.38-19.19 43.77-3.33 1.82-6.71 3.79-10.48 4.48-.66-.2-1.99-.61-2.66-.82 7.33-2.14 14.45-5.6 19.85-11.11 8.95-8.98 13.19-22.12 12.1-34.66l.38-1.66Z"/><g fill="#373737"><path opacity=".42" d="M253.97 154.08c-.45-1.37-.14-2.51.95-3.42.53 1.38.22 2.52-.95 3.42ZM89.9 251c.56.25 1.69.75 2.25 1-.56-.25-1.69-.75-2.25-1Z"/></g><path fill="#a061e8" d="M124.03 162.04c4.82-2.16 9.32-4.93 14.02-7.32-.23 3.44-.19 6.89.03 10.33-6.38 4.26-13.67 6.85-20.22 10.81 1.36.22 2.73.44 4.1.64-2.53-.12-5.13-.15-7.45 1.03l-.2.07c.37-5-.09-10.03.38-15.04.56 2.72.88 5.49.68 8.26.25-1.47.22-3.04.93-4.37 2.21-2.03 5.1-3.07 7.73-4.41Z"/><path fill="#ce31f9" d="m139.08 158.55.11.93c.15 5.94.7 11.91.19 17.84-8.18.77-16.6.12-24.87.21 2.32-1.18 4.92-1.15 7.45-1.03-1.37-.2-2.74-.42-4.1-.64 6.55-3.96 13.84-6.55 20.22-10.81.13 2.64.07 5.27.01 7.92 1.16-1.37.82-3.29.81-4.93-.18-3.17-.01-6.33.18-9.49Z"/><path fill="#363636" opacity=".38" d="M251.94 163.07c-.44-1.38-.09-2.49 1.07-3.32.46 1.38.11 2.49-1.07 3.32Z"/><path fill="#615d5d" opacity=".61" d="M1685.74 171.75c1.46-3.55 1.87-7.47 3.64-10.92.83 5.52-1.64 10.7-3.87 15.56-3.99 8.34-11.08 15.01-19.47 18.79-1.55.63-3.26.43-4.85.54 2.95-1.53 5.97-2.95 8.82-4.69 7.15-4.49 12.67-11.41 15.73-19.28Z"/><path fill="#3e3e3e" opacity=".53" d="M5.02 164.96Z"/><g fill="#313131"><path opacity=".6" d="M5.91 168.01ZM6.95 170.98c.28.53.83 1.61 1.11 2.15-.28-.54-.83-1.62-1.11-2.15Z"/></g><path fill="#262626" opacity=".61" d="M10.85 180.37c1.66.96 2.51 2.75 2.24 4.65-1.55-1.05-2.33-2.8-2.24-4.65Z"/><path fill="#262626" opacity=".63" d="M242.82 186.6c-.16-1.53.15-3.69 2.06-3.87.06 1.57-1.03 2.82-2.06 3.87Z"/><path fill="#202020" opacity=".68" d="M13.24 185.74c2.35.43 2.81 2.91 2.77 4.93-1.43-1.31-2.61-2.95-2.77-4.93Z"/><path fill="#222" opacity=".33" d="M17.9 194.35c1.25.59 1.93 1.53 2.05 2.83-1.48-.24-2.16-1.18-2.05-2.83Z"/><path fill="#252525" opacity=".28" d="M236.13 198.39c.01-1.42.67-2.44 1.98-3.05.08 1.51-.58 2.53-1.98 3.05Z"/><path fill="#242424" opacity=".73" d="M20.01 197.84c1.42.09 2.11.86 2.07 2.31-1.35-.15-2.04-.92-2.07-2.31Z"/><path fill="#212121" opacity=".32" d="M234.05 201.37c.01-1.42.69-2.3 2.04-2.64.05 1.44-.63 2.32-2.04 2.64Z"/><path fill="#222" opacity=".7" d="M22.1 200.64c1.38.33 2.03 1.22 1.95 2.66-1.38-.38-2.03-1.27-1.95-2.66Z"/><path fill="#242424" opacity=".75" d="M24.96 204.74c1.39.22 2.09 1.03 2.11 2.43-1.35-.14-2.06-.95-2.11-2.43Z"/><path fill="#1d1d1d" opacity=".52" d="M27.25 207.54c1.7 1.87 3.4 3.75 4.73 5.91-1.83-1.75-3.84-3.45-4.73-5.91Z"/><path fill="#1d1d1d" opacity=".71" d="M219.85 218.43c1.75-3.1 4.35-5.54 7.13-7.72-2.03 2.88-4.44 5.45-7.13 7.72Z"/><path fill="#1c1c1c" opacity=".16" d="M32.79 214.6c3.34 3.05 6.49 6.29 9.6 9.58-4.02-2.23-7.34-5.6-9.6-9.58Z"/><path fill="#1b1b1b" opacity=".64" d="M209.59 227.96c2.66-3 5.41-5.97 8.85-8.09-2.57 3.09-5.51 5.84-8.85 8.09Z"/><path fill="#1f1f1f" opacity=".62" d="M43.92 225.03c2.15.19 4.11 1.59 4.06 3.94-1.83-.71-3.62-1.91-4.06-3.94Z"/><path fill="#2a2a2a" opacity=".33" d="M205.79 231.26c.23-1.44 1.07-2.2 2.53-2.28-.28 1.38-1.12 2.14-2.53 2.28Z"/><path fill="#282828" opacity=".71" d="M49.81 229.85c1.61.07 2.38.85 2.32 2.36-1.26-.3-2.03-1.08-2.32-2.36Z"/><path fill="#292929" opacity=".32" d="M201.9 234.02c.18-1.21.91-1.93 2.21-2.14.05 1.56-.69 2.27-2.21 2.14Z"/><path fill="#272727" opacity=".68" d="M53.77 232.78c1.37.1 2.22.81 2.57 2.13-1.47.06-2.33-.65-2.57-2.13Z"/><path fill="#232323" opacity=".72" d="M198.74 235.86c.3-1.41 1.11-2.05 2.45-1.91-.17 1.36-.99 2-2.45 1.91Z"/><path fill="#252525" opacity=".7" d="M195.6 237.95c.37-1.36 1.24-2.04 2.6-2.05-.2 1.39-1.07 2.07-2.6 2.05Z"/><path fill="#222" opacity=".52" d="M59.75 237.07c2.11.07 3.88 1.21 4.95 3.01-2.07-.14-4.09-1-4.95-3.01Z"/><path fill="#252525" opacity=".47" d="M190.61 240.88c.98-1.63 2.57-2.83 4.53-2.86-.33 2.21-2.63 2.8-4.53 2.86Z"/><path fill="#3c3c3c" opacity=".61" d="M65.2 240.39Z"/><path fill="#232323" opacity=".34" d="M65.89 240.82c3.78 1.67 7.46 3.52 11.09 5.49-4.05-1.02-7.81-2.91-11.09-5.49Z"/><path fill="#282828" opacity=".69" d="M177.42 247.12c1.09-1.78 3.07-2.52 5.09-2.19-1.38 1.33-3.15 2.16-5.09 2.19Z"/><path fill="#292929" opacity=".58" d="M78.53 246.93c1.72.11 4.22-.01 4.84 2.07-1.91.38-3.48-.96-4.84-2.07Z"/><path fill="#282828" opacity=".36" d="M167.29 250.93c2.86-1.27 5.82-2.29 8.83-3.16-2.71 1.63-5.7 2.72-8.83 3.16Z"/><path fill="#3c3c3c" opacity=".49" d="M83.95 248.95Z"/><path fill="#373737" opacity=".53" d="M86.93 249.93Z"/><path fill="#303030" opacity=".44" d="M163.86 252.11c.75-1.2 1.8-1.57 3.18-1.1-.79 1.2-1.85 1.57-3.18 1.1Z"/><path fill="#383838" opacity=".48" d="M92.91 251.91c1.38-.42 2.49-.06 3.32 1.09-1.39.47-2.5.1-3.32-1.09Z"/><path fill="#353535" opacity=".6" d="M159.98 253.04c.82-1.16 1.88-1.53 3.18-1.11-.65 1.24-1.71 1.61-3.18 1.11Z"/><path fill="#333" opacity=".49" d="M96.92 252.9c1.38-.42 2.46-.03 3.25 1.17-1.4.42-2.48.03-3.25-1.17Z"/><path fill="#333" opacity=".43" d="M100.81 254.03c1.53-.5 3.25-.34 4.4.88-1.53.58-3.28.38-4.4-.88Z"/><path fill="#2c2c2c" opacity=".45" d="M143.33 256c4.3-.92 8.65-1.64 13.04-2.04-4.22 1.34-8.59 2.28-13.04 2.04Z"/><path fill="#353535" opacity=".53" d="M105.97 255.15c2.06-.7 4.32-.64 6.14.66-2.06.72-4.3.57-6.14-.66Z"/></svg>