<svg viewBox="0 0 434 80" xmlns="http://www.w3.org/2000/svg"><path fill="#9b0df5" d="M25.1 0h1.95c3.12.71 6.07 1.94 9.06 3.08 1.22 4.47 3.65 9.68 9.09 9.61-3.46.33-6.85 1.22-10.32 1.29-3.21-.65-6.05-2.4-9.09-3.55-.94 1.18-2.03 2.28-2.68 3.66.08 2.11.53 4.19.66 6.31-3.79-1.47-7.49-3.15-11.16-4.89C12.3 8.3 17.99 1.24 25.1 0Z"/><path fill="#8419ec" d="M92.64 0h2.23c3.41.48 6.3 2.52 8.64 4.95-2.21 2.73-4.68 5.22-7.28 7.57-.55-.51-1.63-1.52-2.18-2.03-4 1.45-7.87 4.37-12.34 3.3 3.51-4.18 6.86-8.51 9.44-13.35L92.64 0Z"/><path fill="#ab05fb" d="M36.11 3.08C48.74 1.2 61.58.71 74.3 2.03c-.66 3.54-1.51 7.04-2.58 10.47-8.82-.76-17.71-.7-26.52.19-5.44.07-7.87-5.14-9.09-9.61Z"/><path fill="#9411f2" d="M83.86 2.98c2.49-.68 4.83-1.77 7.29-2.54-2.58 4.84-5.93 9.17-9.44 13.35-3.32-.5-6.65-1.01-9.99-1.29 1.07-3.43 1.92-6.93 2.58-10.47 3.19.25 6.35 1.12 9.56.95Z"/><path fill="#7422e6" d="M103.51 4.95c3.17 3.65 4.54 8.54 3.7 13.32-3.14 1.96-6.53 3.52-10.15 4.35-1.82-3.21.68-6.86-.83-10.1 2.6-2.35 5.07-4.84 7.28-7.57Z"/><g fill="#e7e7e7"><path opacity=".91" d="M373.58 15.67c4.5-.56 8.35 2.02 12.01 4.24-.97 1.78.29 3.14 1.23 4.53-.61.01-1.82.02-2.43.02.69 2.88-2.77 2.81-3.99.94-.2.31-.61.93-.82 1.24-1.37-.53-2.74-1.04-4.12-1.54-1.59.75-3.2 1.48-4.8 2.21.5 1.83 1.06 3.65 1.64 5.47 5.58 1.71 12.01 3.39 15.64 8.27 1.36 2.75 1.73 5.82 1.95 8.85l-1.86-.29c.47.75.96 1.48 1.47 2.21-1.33 1.97-1.37 6.11-4.5 5.87l1.25 1.44c-1.32.07-2.65.12-3.96.13l.75 2.3-2.02-1.82c-.17.48-.52 1.45-.7 1.93-2-.06-3.98-.15-5.97-.26-2.71.54-5.4-.22-8.1-.42-1.99-2.59-5.08-3.77-7.77-5.42-.51-1.41-.76-2.89-1.11-4.34-.1-.47-.29-1.41-.39-1.87.81.06 2.41.2 3.21.26.29-.35.87-1.05 1.16-1.39 3.49 1.48 6.74 4.22 10.82 3.49 2.29.27 5.17-.94 6.92 1.05-.34-.75-1.03-2.24-1.37-2.99l2.38 1.34-.98-2.17 2.1.74c-2.01-5.47-8.5-5.61-13.35-6.47.56-.6 1.67-1.81 2.23-2.42-.93.72-2.77 2.16-3.7 2.87l1.08-2.93c-1.39-.04-2.78-.07-4.16-.09l.27-1.27-1.41.24.22-1.14c-2.89.93-1.49-2.19-1.58-3.79l-1.43 1.16c.21-2.04-.1-4.05-.69-6 .53-3.87 2.63-7.22 4.91-10.29 3.31-1.05 6.28-4.21 9.96-3.15l.01-.74m-2.38 2.56c.51.5.51.5 0 0m-6.93 19.1c.48.52.48.52 0 0ZM252.37 15.98c2.31.83 1.03 2.4-.1 3.84.85-.39 2.56-1.17 3.42-1.56-.41-.4-1.22-1.21-1.62-1.61 2.11-1.42 3.32.6 4.21 2.2 4.94 5.67 8.3 13.46 6.78 21.09l-2.06-.88c.57.71 1.71 2.14 2.28 2.85l-2.21-.67-.2.97 1.88-.08c-.45 2.5-.86 5-1.26 7.51l-1.18-.11.21 3.59-1.29.53.68 3.74-1.85-2.9c-.31.67-.94 2-1.25 2.66.71.09 2.14.26 2.86.35-1.4.48-2.81.91-4.25 1.23-5.12 1.43-10.57-.18-14.38-3.8-2.12-1.67-4.32-3.25-6.46-4.89.03-1.27.09-2.53.18-3.79-.53-1.05-1.05-2.09-1.57-3.14-.9 5.5.61 11.02 1.04 16.51-.53-.46-1.58-1.38-2.11-1.84-.28 1.2-.53 2.42-.76 3.63-1.3.1-2.59.37-3.89.29-1.07-1.82-1.94-3.75-3.07-5.53.57-1.16 1.14-2.32 1.69-3.48l-2.05.17c.45-.94 1.35-2.83 1.81-3.78l-1.58.55c.15-1.81.31-3.61.52-5.41-.29-.58-.87-1.74-1.15-2.31.65-.93 1.31-1.86 1.97-2.79-.54-.21-1.63-.63-2.17-.83 1.11-3.15 2.06-7.11.2-10.14.47-2.82 1.01-5.62 1.73-8.39 1.79-.18 3.59-.2 5.39-.24.32 4.54 2.23 8.71 4.53 12.57.05.49.16 1.48.21 1.97.38-.47 1.15-1.39 1.53-1.86.62 1.61 2.31 3.28 1.58 5.11 2.32 1.31 3.04 4.33 4.65 6.4l-1.41.77c.71-.14 2.12-.43 2.83-.58l-.47 1.83c1.82.16 4.24.78 3.35 3.12l.28.47.32.32c.78-1.03 1.77-1.8 2.97-2.27l-1.65-1.6 2.21-.18c-1.63-1.79-.22-4.37-.92-6.47-1.55-5.31-2.87-10.69-4.83-15.87l1.89.12-1-3.21 1.96 1.87c-.92-2.25.69-4.13 1.58-6.05m-2.1 9.15c-.72.96.39 3.01 1.64 2.51.76-.98-.39-3.02-1.64-2.51m1.83 5.99c-.89 1.06.17 3.48 1.42 3.65.46-1.12.17-3.74-1.42-3.65m11.24 2.11c.48.53.48.53 0 0m-10.14 3.06c.52.51.52.51 0 0m-10.93 5.91c.54.53.54.53 0 0m11.77.26c-1.44 3.04 3.32.03 0 0m-15.75 5.82c.52.5.52.5 0 0m8.88-.02c.53.51.53.51 0 0ZM288.52 16.6c1.61-.14 3.16.5 4.72.82 1.92 1.21 4.1 2.05 5.67 3.75-1 1.61-1.84 3.54-3.89 4-.2-.66-.61-1.97-.81-2.63l.06 2.1c-1.53.24-3.06.5-4.58.77-1.26-.56-2.55-1.06-3.84-1.52.99.6 1.99 1.18 3.01 1.76-1.39.93-2.77 1.86-4.05 2.93-1.81 1.5-3.6 3.04-5.57 4.33l1.67-.08c-.64 1.27-1.25 2.55-1.94 3.8-2.03.86-1.23 4.55 1.09 3.39.23 2.44 1.83 4.36 3.06 6.36.27 1.66 1.75 2.29 3.08 2.99 1.35.04 2.7.11 4.06.2l-.02.71c1.52-.17 3.12.19 4.58-.38.8-1.06 1.56-2.15 2.28-3.27-2.52-.74-5.07-1.41-7.72-1.29.08-.31.23-.92.3-1.23-2.12-.25-4.15-.85-6.01-1.91 2.43-.73 2.11-2.69 1.75-4.6 2.85.14.52-2.26.14-3.58 4.64-.13 9.25.3 13.88.5.33.9.72 1.78 1.15 2.65-.07-.71-.2-2.14-.26-2.85 2.3.51 4.69.98 6.61 2.46.03 1.61.03 3.22.03 4.83-.98.35-1.95.71-2.92 1.08.72-.04 2.16-.13 2.88-.17-.39 1.92.82 4.84-1.47 5.89l.28-4.75c-1.08 2.06-1.88 4.86.87 6.28l-1.91-.5c-1.13 1.2-3.7 3.71 2.12 2.59l-2.71.74 1.05 2.88c-.84 1.66-1.65 3.34-2.8 4.81-2.37 1.34-5.22 1.28-7.86 1.08-1.42.03-2.83.05-4.24.06l.39-.96c-3.33-.67-6.63-1.5-9.96-2.15-2.78-.37-4.73-2.63-6.9-4.17-.03-1.13-.39-2.2-1.09-3.09-2.75-4.15-3.07-9.33-3.24-14.14 1.58-4.93 3.41-9.88 6.6-14.01 1.16-1.3 2.07-3.05 3.99-3.27-.78.87-1.59 1.7-2.41 2.52-.48 1.08-1.43 3.25-1.9 4.33 3.67-4.02 7.92-7.58 12.78-10.06m-11.29 13.7c.54.48.54.48 0 0m25.92 6.9c-1.49 3.07 3.3.11 0 0m1.92.99c-1.53 3.02 3.28.18 0 0m-24.93 6.97c-1.61 2.95 3.31.25 0 0m1.48 3.12c.55.5.55.5 0 0ZM323.04 17.05c1.31-.36 3.93-1.1 5.24-1.47-.01.98-.01 1.96-.02 2.94l-1.82.48c1.87-.23 4.48.3 5.58-1.68l-2.4.12c.07-.43.22-1.29.29-1.72 2.07-.08 3.66.47 4.35 2.45 1.74.32 3.42.91 5.11 1.43-1.47-.87-3.37-1.24-4.32-2.77l.4-1.03c3.03.97 5.65 2.84 8.52 4.15 2 .84 3.76 2.62 3.86 4.89l.54-.71c2.29 3.69 5.28 7.29 5.45 11.84-.03 3.01 1.23 6.85-1.36 9.14.02.66.07 1.98.1 2.64l-1.29-.22c.13.86.38 2.58.51 3.44l-2.47-2.41c.49 1.2 1.48 3.59 1.97 4.79l-2.47-3.1 1.29 4.42-1.92-2.34c1.3 4.29-3.91 5.52-6.6 7.23-.9-2.2-2.32-.35-3.17.73-3.36.1-6.78.1-10 1.18l-.11 1.31c-2.44-1.07-4.72-2.44-6.83-4.03.04-.62.13-1.84.17-2.46-.56.48-1.11.98-1.64 1.49l-.33-1.41c-2.09.5-3.06-1.29-4.23-2.54-2.33-2.27-3.07-5.58-5.03-8.12.17-2.4-.24-5.1 1.66-7.01l-2.83.89c.39-1.13.78-2.26 1.18-3.39.39.14 1.17.4 1.56.53l-1.55-1.75-1.46 1.68c.43-5.14 3.93-9.16 6.44-13.44 1.35-.82 4.26-.81 3.22-3.33.42.25 1.27.73 1.69.98.51-.91 1.53-2.72 2.04-3.63.45 1.16.21 2.39.17 3.6.74-.77 1.11-1.74 1.3-2.78l2.38.77c-1.06-.59-2.13-1.17-3.17-1.78m21.13 5.17c-1.4.65-1.45 1.31-.17 1.98 1.38-.64 1.44-1.3.17-1.98m-7.88 1.89c.34 3.31 2.9-1.69 0 0m-9.96 1.15c.5.55.5.55 0 0m18.96-.27c.52.53.52.53 0 0m-20.03 2.44c.21.36.62 1.08.82 1.44-1.94 1.88-5.87 2.71-5.74 5.92l-1.02-.42-.36 1.93 1.51.04c.2 3.77 1.02 7.44 2.27 10.99 1.35 1.97 2.94 3.92 5.65 3.4.73.8 1.47 1.6 2.22 2.4l-.3-1.62c1.73.04 3.47.08 5.2.24.88-.52 1.77-1.04 2.67-1.54 3.05-3.13 5.11-7.36 5.67-11.68l1.1.39.07-.8-1.44.4c-.08-.74-.25-2.23-.33-2.97-1.09-2.33-2.44-4.53-4.31-6.33l-.91.94-.6-3.28c-.43.51-.85 1.02-1.27 1.52-3.08-3.07-7.21-1.26-10.9-.97m23.03 1.86c.51.54.51.54 0 0m2.96 3.93c.59.56.59.56 0 0m-7.92 24.01c1.35.16 3.26-1.15 3.21-2.59-1.26.19-3.17 1.2-3.21 2.59ZM398.02 17.21c4.29-.87 8.67-.25 12.97-.95 3.39-.43 6.79.28 10.11.92l-2.25 1.4c1.74.57 3.49 1.12 5.26 1.61l-1.92 1.16c.58.77 1.18 1.52 1.8 2.27-.72.1-2.14.32-2.86.42l.51 1.9-.03.83c-1.2-.21-2.39-.42-3.57-.63-.97 1.73-2.65 1.97-4.43 1.73-2.07-.24-4.16-.26-6.23-.21-.26-.52-.79-1.56-1.06-2.08l.56 2.44c-1.04.03-3.12.07-4.16.1 1.82.77 3.7 1.46 5.64 1.9-1.96-.15-3.92-.29-5.88-.37-.01 1.61-.01 3.23-.01 4.84 7.13.9 14.87-2.75 21.51.85-.56.33-1.68 1-2.24 1.33 1.01.77 2.01 1.56 3 2.37l-2.28-.88.48 3.52c-.4-.1-1.18-.28-1.57-.37.13.72.38 2.18.5 2.91-6.28 2.14-13.01.95-19.48 1.61.67 1.44 1.31 2.89 1.96 4.34l-.82-2.37c1.91.63 3.92 1.01 5.85 1.64.4-.28 1.2-.85 1.6-1.13.85.63 1.71 1.26 2.58 1.88l-.26-1.87c2.38.87 4.85.09 7.09-.81.69.33 2.08.98 2.78 1.31-.3-2.92 2.74.35 4.07-.14-.66.25-1.96.74-2.61.98 1.34.88 2.8 1.08 4.38.6-1.19.93-2.38 1.87-3.52 2.87.94.04 2.82.14 3.76.19-2.06.6-4 1.54-5.63 2.94 1.8.07 3.61.08 5.43.04-2.19 1.25-4.47 2.32-6.79 3.28l.01 1.11-2.55-.12c.06-1.35-.26-1.43-.81-.23l-2.06.23 1.03 1.5c-1.1-.4-3.31-1.21-4.41-1.61-.49-.35-.99-.7-1.48-1.04-1.29-1.05-4.02-1.56-3.58.97-2.41-.42-4.85-.19-7.22.3-1.19-.92-2.51-1.48-4.03-1.2l.93-1.04c-3.31.61-3.73-3.59-5.44-5.4l2.66.23c-.96-.28-1.91-.55-2.87-.79l.57-1.68-1.78 1.42c.11-1.16.35-3.48.46-4.64.4-.48 1.18-1.43 1.57-1.91-.39-.08-1.19-.24-1.58-.31-.11-6.14-.4-12.27-.67-18.41-.23-2.65.79-5.15 1.48-7.66l1.9.61-1.59-1.84c1.68-.73 3.38-2.05 5.22-.86m6.02 7.25c-1.44 3.04 3.33.03 0 0m-11.86 1.05c-.87 1.27-.65 2.01.66 2.23.85-1.26.63-2-.66-2.23m26.08 30.75c.53.52.53.52 0 0m2.02-.02c.53.54.53.54 0 0m1.97.01c.5.53.5.53 0 0ZM159.03 17.93c1.34-.52 2.86-.62 4.04-1.57 4.01 5.06 3.24 11.69 3.81 17.7-.1 2.24-.4 4.48-.67 6.71.49.05 1.48.17 1.98.22-.49.06-1.46.17-1.94.23.24.93.74 2.79.99 3.71-.45-.12-1.33-.37-1.77-.5.05 1.56.14 3.13-.09 4.68l1.24-.99c-.14.83-.43 2.48-.57 3.3 2.51.03 5.02.21 7.53.24 4.92-1.76 10.26-1.29 15.39-1.29l1.38.61c-.63.44-1.89 1.34-2.51 1.78 2.39-.95 4.13 1.08 5.93 2.29-.69.24-2.05.73-2.73.98.2.43.61 1.29.82 1.73-.54.27-1.62.8-2.16 1.07.62.18 1.84.53 2.45.7-1.03.54-2.05 1.07-3.06 1.62-10.38.9-21.28 2.73-31.3-1.13-.41-1.12-1.12-2.03-2.11-2.73l.2-4.02c-.51.43-1.52 1.29-2.03 1.72.05-2.97.38-5.95 1.31-8.78.75-2.35 1.67-4.65 2.52-6.97-.51.05-1.52.13-2.03.17.65-1.52 1.44-3 1.96-4.58.03-2.92-.63-5.8-.75-8.71-.52-1.21-1.01-2.44-1.47-3.67.84-1.78 2.32-3.11 3.64-4.52m14.37 35.7c1.16.64 3.62.57 4.24-.69-1.12-.71-3.93-.9-4.24.69ZM203.25 17.12c2.68-.62 5.58-.36 7.45 1.85l-.04-2.6 3.28.86c-.44.3-1.32.9-1.75 1.2 2.02.02 3.98.62 5.08 2.44-.52.28-1.54.84-2.06 1.12.3.51.91 1.52 1.21 2.03l-2.18-.72.38 2.01 2.84-.12c-1.88.78-3.8 1.45-5.74 2.04.17 8.59.65 17.18.66 25.77-.35.17-1.06.52-1.42.69 2.45.09 4.87.48 7.32.31-1.31-.78-2.76-1.25-4.23-1.62.77.09 2.3.28 3.06.37.2-2.69 1.76-.45 1.33.98 1.02.64 2.26.81 3.37 1.29-1.07.78-1.55 1.93-1.72 3.21-1.18 1.28-2.37 2.61-4.04 3.22-5.28-1.6-11.03-1.64-16.54-2.05l.07-.82c-1.29-.09-2.58-.18-3.86-.28-.23-1.1-.46-2.2-.7-3.3 1.21-.33 2.42-.66 3.64-.96.89-1.47 2.04-2.9 1.95-4.72.23.13.71.38.94.51-.05-1.23-.11-2.46-.16-3.69.48-.21 1.43-.62 1.9-.82l-2.49.12c.76-3.34.71-6.84 1.83-10.1-.01-1.22-.03-2.44-.05-3.66 1.75-.37 1.71-.76-.13-1.18-.02-.74-.07-2.21-.09-2.95.49-.07 1.46-.22 1.94-.29-1.37.04-2.74.1-4.1.16-1.22-1.5-2.56-2.89-4.06-4.09l1.29-3.18c.21-.08.64-.22.85-.29.48-.64 1.44-1.93 1.92-2.57.83 1.14 2.14 1.51 3.47 1.69-.1-.47-.32-1.4-.42-1.86m3.12 1.14c.53.53.53.53 0 0m-3.83 33.32c-.06.33-.19 1-.26 1.33.5 2.61 3.83.39 2.18-1.3-.48-.01-1.44-.02-1.92-.03Z"/></g><path fill="#8b15ef" d="M12.61 15.51c3.67 1.74 7.37 3.42 11.16 4.89-2.34 5.86-4.82 11.67-6.82 17.67-3.61.08-7.21-.18-10.76-.82 1.75-5.46 3.85-10.8 5.97-16.13.82-1.77.47-3.74.45-5.61Z"/><path fill="#652ae1" d="M97.06 22.62c3.62-.83 7.01-2.39 10.15-4.35.63 4.02 2.7 7.62 3.99 11.45a78.3 78.3 0 0 1-10.2 2.63c-1.2-3.29-2.58-6.5-3.94-9.73Z"/><g fill="#9a9a9a"><path opacity=".6" d="M206.37 18.26c.53.53.53.53 0 0ZM326.33 25.26c.5.55.5.55 0 0Z"/></g><path fill="#bcbcbc" opacity=".74" d="M371.2 18.23c.51.5.51.5 0 0Z"/><path fill="#9311f2" d="M33.82 25.25c.09-2.43-.28-6.51 3.17-6.64 3.65-.26 3.59 4.12 3.54 6.63 1.93.32 4.37-.41 5.9 1.12 1.77 1.58.91 4.99-1.43 5.45-1.49.22-3.01.22-4.51.29-.25 2.06.51 4.88-1.64 6.15-1.53 1.12-3.97.29-4.63-1.46-.33-1.54-.29-3.13-.37-4.69-2.47-.01-6.4.13-6.5-3.28-.19-3.53 3.92-3.69 6.47-3.57Z"/><path fill="#7a1fe8" d="M77.76 21.78c3.98-2.45 8.9-.44 11.47 3.06-4.86 2.78-9.81 5.41-14.57 8.36-1.85-3.96-1.02-9.25 3.1-11.42Z"/><path fill="#505050" opacity=".31" d="m155.12 21.8.27.65c.46 1.23.95 2.46 1.47 3.67.12 2.91.78 5.79.75 8.71-.52 1.58-1.31 3.06-1.96 4.58.51-.04 1.52-.12 2.03-.17-.85 2.32-1.77 4.62-2.52 6.97.58-4.72.25-9.48.51-14.22.39-3.43-1.09-6.75-.55-10.19Z"/><path fill="#b5b5b5" opacity=".71" d="M344.17 22.22c1.27.68 1.21 1.34-.17 1.98-1.28-.67-1.23-1.33.17-1.98Z"/><path fill="#a0a0a0" opacity=".63" d="M336.29 24.11c2.9-1.69.34 3.31 0 0Z"/><g fill="#afafaf"><path opacity=".69" d="M404.04 24.46c3.33.03-1.44 3.04 0 0ZM253.2 36.29c.52.51.52.51 0 0Z"/></g><path fill="#6828e2" d="M74.66 33.2c4.76-2.95 9.71-5.58 14.57-8.36 1.52 3.94.59 9-3.45 11.03-3.79 2.28-8.48.52-11.12-2.67Z"/><path fill="#b7b7b7" opacity=".72" d="M250.27 25.13c1.25-.51 2.4 1.53 1.64 2.51-1.25.5-2.36-1.55-1.64-2.51Z"/><path fill="#969696" opacity=".59" d="M345.29 24.99c.52.53.52.53 0 0Z"/><path fill="#6b6b6b" opacity=".42" d="M392.18 25.51c1.29.23 1.51.97.66 2.23-1.31-.22-1.53-.96-.66-2.23Z"/><path fill="#585858" opacity=".35" d="m421.64 25.94.14-1.46c.47.62 1.43 1.86 1.9 2.48-1.67.02-3.33.04-5 .05.05.49.14 1.45.19 1.93-3.54-.01-7.02.57-10.51 1.08-1.94-.44-3.82-1.13-5.64-1.9 1.04-.03 3.12-.07 4.16-.1l1.17.4c1.86-.09 3.7-.35 5.56-.55 1.78.24 3.46 0 4.43-1.73 1.18.21 2.37.42 3.57.63l.03-.83Z"/><path fill="#636363" opacity=".39" d="M279.24 32.91c1.97-1.29 3.76-2.83 5.57-4.33-.95 2.05-2.16 3.97-3.43 5.83l3.06-1.35c-1.17 1.65-2.48 3.19-3.7 4.8l-.68 2.16c.19-1.36-.17-2.5-1.09-3.39.69-1.25 1.3-2.53 1.94-3.8l-1.67.08Z"/><g fill="#9f9f9f"><path opacity=".62" d="M348.29 29.29c.51.54.51.54 0 0ZM280.06 40.02c-2.32 1.16-3.12-2.53-1.09-3.39.92.89 1.28 2.03 1.09 3.39ZM247.17 48.26c.53.51.53.51 0 0Z"/></g><g fill="#5731db"><path d="M101 32.35a78.3 78.3 0 0 0 10.2-2.63c1.21 3.3 2.33 6.63 3.41 9.98-3.61.2-7.21.38-10.82.56-.88-2.66-1.82-5.29-2.79-7.91ZM55.46 48.12c2.76.16 5.52.18 8.29.1 1.39 3.51 2.86 6.99 4.38 10.45-6.21.49-12.46.4-18.64-.36 1.74-3.54 3.8-6.9 5.97-10.19Z"/></g><path fill="#aeaeae" opacity=".68" d="M277.23 30.3c.54.48.54.48 0 0Z"/><path fill="#b2b2b2" opacity=".7" d="M263.34 33.23c.48.53.48.53 0 0Z"/><path fill="#6a6a6a" opacity=".42" d="M351.25 33.22c.59.56.59.56 0 0Z"/><path fill="#7f1cea" d="M.5 60.33c1.08-7.87 3.22-15.55 5.69-23.08 3.55.64 7.15.9 10.76.82-2.11 6.07-3.97 12.23-5.28 18.52C7.93 57.77 4.2 59.01.5 60.33Z"/><path fill="#5b5b5b" opacity=".36" d="M303.15 37.2c3.3.11-1.49 3.07 0 0Z"/><path fill="#bbb" opacity=".73" d="M364.27 37.33c.48.52.48.52 0 0Z"/><path fill="#747474" opacity=".45" d="M305.07 38.19c3.28.18-1.53 3.02 0 0Z"/><path fill="#4b38d7" d="M103.79 40.26c3.61-.18 7.21-.36 10.82-.56 1.08 3.45 2.07 6.93 2.94 10.44-3.59.1-7.17.12-10.76.07-.89-3.35-1.91-6.67-3-9.95Z"/><g fill="#8f8f8f"><path opacity=".56" d="M242.27 42.2c.54.53.54.53 0 0ZM357.37 51.23c.35 1.45.6 2.93 1.11 4.34 2.69 1.65 5.78 2.83 7.77 5.42-3.14.37-5.75-1.53-8.35-2.93-.38-2.26-1.09-4.54-.53-6.83Z"/></g><g fill="#b1b1b1"><path opacity=".69" d="M254.04 42.46c3.32.03-1.44 3.04 0 0ZM238.29 48.28c.52.5.52.5 0 0Z"/></g><path fill="#a2a2a2" opacity=".64" d="M280.14 45.16c3.31.25-1.61 2.95 0 0Z"/><path fill="#7123e5" d="M32.09 50.1c1.73-2.08 3.64-5.2 6.83-4.46 5.48 1 10.94 2.28 16.54 2.48-2.17 3.29-4.23 6.65-5.97 10.19-3.1-.38-6.17-.91-9.24-1.48-4.37 5.42-8.54 11.01-13.21 16.19-3.29 3.66-7.76 6.23-12.65 6.98h-2.2C5.96 79.77.82 74.64 0 68.56v-2.3c.1-1.98.27-3.96.5-5.93 3.7-1.32 7.43-2.56 11.17-3.74-.55 3.99-1.91 8.22-.63 12.18 3.17 1.56 6.38-.98 8.5-3.17 4.43-4.95 8.44-10.27 12.55-15.5Z"/><path fill="#3544cf" d="M63.75 48.22c5.5-.15 10.92-1.13 16.26-2.41 2-.64 4.28-.17 5.59 1.55 5.08 5.98 9.59 12.44 14.87 18.26 2.13 2.19 5.33 4.71 8.51 3.15 1.47-6.17-.94-12.52-2.19-18.56 3.59.05 7.17.03 10.76-.07 1.36 5.87 2.6 11.89 2.34 17.95-.23 6.05-5.34 11.14-11.25 11.91h-3.13c-5.33-.83-10.01-3.92-13.46-7.98-4.27-4.91-8.22-10.08-12.28-15.15-3.85.77-7.73 1.47-11.64 1.8-1.52-3.46-2.99-6.94-4.38-10.45Z"/><path fill="#9e9e9e" opacity=".62" d="M281.62 48.28c.55.5.55.5 0 0Z"/><path fill="#4d4d4d" opacity=".3" d="M271.27 53.22c.54.51.54.51 0 0Z"/><g fill="#393939"><path opacity=".22" d="M237.08 54.43c3.33.09-1.49 3.01 0 0ZM220.47 60.06c3.02-1.46.06 3.33 0 0Z"/></g><path fill="#9b9b9b" opacity=".61" d="M418.26 56.26c.53.52.53.52 0 0Z"/><path fill="#939393" opacity=".58" d="M420.28 56.24c.53.54.53.54 0 0Z"/><path fill="#a6a6a6" opacity=".65" d="M422.25 56.25c.5.53.5.53 0 0Z"/><path fill="#8e8e8e" opacity=".56" d="M411.99 59.42c.49.34.99.69 1.48 1.04-1.26 1.14-2.56 1.29-3.91.43-.01-1.4.8-1.89 2.43-1.47Z"/></svg>