<?xml version="1.0" encoding="UTF-8" ?>
<!DOCTYPE svg PUBLIC "-//W3C//DTD SVG 1.1//EN" "http://www.w3.org/Graphics/SVG/1.1/DTD/svg11.dtd">
<svg width="1200pt" height="1200pt" viewBox="0 0 1200 1200" version="1.1" xmlns="http://www.w3.org/2000/svg">
<g id="#fed8e0ff">
<path fill="#fed8e0" opacity="1.00" d=" M 0.00 0.00 L 1200.00 0.00 L 1200.00 585.33 C 1181.13 579.27 1161.73 574.67 1141.93 573.23 C 1120.28 570.71 1098.41 573.21 1077.07 577.07 C 1044.87 583.69 1014.09 597.19 987.45 616.47 C 935.68 653.54 900.60 713.02 893.32 776.30 C 890.34 796.06 891.83 816.09 894.23 835.82 C 898.82 870.44 911.82 903.79 931.18 932.81 C 949.27 959.55 972.88 982.61 1000.28 999.73 C 1031.92 1019.53 1068.34 1031.70 1105.58 1034.48 C 1126.07 1035.77 1146.77 1035.11 1166.93 1030.93 C 1178.11 1028.58 1189.39 1026.14 1200.00 1021.80 L 1200.00 1200.00 L 0.00 1200.00 L 0.00 1017.10 C 19.31 1021.72 39.32 1021.46 59.04 1020.98 C 75.75 1020.13 92.24 1016.68 108.35 1012.29 C 125.28 1007.41 141.46 1000.22 156.98 991.93 C 197.77 968.78 231.51 933.25 251.96 891.00 C 269.26 854.61 277.37 813.80 274.45 773.57 C 272.96 757.28 270.32 741.04 265.67 725.33 C 260.92 708.09 253.39 691.76 244.89 676.08 C 220.46 632.79 181.71 597.64 136.01 577.99 C 93.57 559.40 45.47 554.15 0.00 562.94 L 0.00 0.00 M 389.02 284.97 C 380.89 289.23 375.04 296.87 371.04 304.97 C 364.22 313.88 360.99 324.92 357.56 335.45 C 354.26 345.15 352.48 355.26 350.57 365.30 C 347.21 382.40 346.19 399.81 344.62 417.13 C 344.44 420.41 344.44 423.70 344.34 426.98 C 342.77 448.28 343.55 469.66 343.47 491.00 C 343.25 500.37 344.73 509.67 344.53 519.05 C 346.14 547.34 348.40 575.64 352.57 603.69 C 354.03 615.06 355.31 626.46 357.58 637.71 C 361.49 661.73 366.74 685.53 373.27 708.96 C 375.27 716.03 376.90 723.31 380.26 729.90 C 382.62 734.13 385.25 738.21 387.80 742.34 C 391.03 747.41 396.84 752.23 403.24 750.16 C 408.64 749.69 412.43 745.43 414.81 740.93 C 418.35 734.71 422.65 728.80 424.61 721.83 C 431.63 698.11 436.69 673.87 441.20 649.56 C 443.17 636.45 445.67 623.42 447.03 610.22 C 450.74 578.92 454.38 547.54 454.69 515.99 C 455.90 504.03 455.43 492.00 455.56 480.00 C 455.85 444.89 454.07 409.71 448.83 374.96 C 445.18 352.82 439.97 330.57 429.29 310.66 C 425.31 303.33 421.22 295.74 414.63 290.39 C 410.27 286.51 404.52 284.97 399.21 282.91 C 395.70 281.45 392.08 283.34 389.02 284.97 M 811.01 287.97 C 802.91 292.28 796.93 299.84 793.01 308.01 C 788.23 313.79 785.78 321.05 783.00 327.91 C 775.92 347.30 772.18 367.71 769.56 388.13 C 768.23 402.40 766.48 416.66 766.35 431.00 C 764.72 451.95 765.58 473.00 765.47 494.00 C 765.24 503.38 766.73 512.68 766.53 522.05 C 767.55 540.76 768.97 559.46 770.98 578.09 C 772.40 593.30 774.98 608.38 776.72 623.56 C 781.25 652.77 786.84 681.87 794.84 710.35 C 797.40 719.31 799.22 728.75 804.43 736.65 C 806.80 740.26 808.74 744.17 811.44 747.57 C 814.49 751.37 819.24 754.72 824.36 753.32 C 829.18 752.96 833.35 750.00 835.65 745.82 C 839.28 739.41 843.78 733.39 846.11 726.33 C 855.97 693.49 862.33 659.71 867.45 625.84 C 871.44 594.00 875.23 562.09 876.52 530.01 C 876.19 519.98 877.79 510.03 877.51 500.01 C 877.38 480.67 878.14 461.29 876.71 441.99 C 876.13 419.65 873.77 397.36 870.41 375.28 C 866.43 352.88 860.90 330.29 849.52 310.39 C 846.05 304.17 842.24 297.93 836.63 293.39 C 832.27 289.50 826.52 287.97 821.20 285.90 C 817.70 284.45 814.07 286.33 811.01 287.97 M 498.48 793.47 C 485.49 807.10 477.33 824.89 473.95 843.31 C 472.64 852.92 471.14 863.15 474.93 872.41 C 477.02 877.64 482.05 880.58 486.55 883.49 C 496.14 890.28 506.54 895.82 517.08 900.98 C 541.50 912.55 567.20 921.32 593.44 927.72 C 617.49 933.53 642.20 937.53 667.01 936.36 C 672.21 935.81 677.75 935.26 682.12 932.09 C 687.16 928.87 690.56 923.09 689.84 916.99 C 691.21 907.03 681.67 898.15 672.05 898.39 C 663.36 898.48 654.67 898.88 645.99 898.51 C 635.65 897.89 625.49 895.70 615.25 894.24 C 616.39 885.77 619.22 877.57 619.56 868.99 C 619.80 861.98 619.90 854.97 619.49 847.97 C 617.51 830.02 610.46 812.74 599.71 798.27 C 590.15 785.95 576.69 776.29 561.39 772.71 C 554.41 770.87 547.11 771.28 539.98 771.57 C 524.05 773.47 509.36 781.86 498.48 793.47 Z" />
</g>
<g id="#ff7979ff">
<path fill="#ff7979" opacity="1.00" d=" M 389.02 284.97 C 392.08 283.34 395.70 281.45 399.21 282.91 C 404.52 284.97 410.27 286.51 414.63 290.39 C 421.22 295.74 425.31 303.33 429.29 310.66 C 439.97 330.57 445.18 352.82 448.83 374.96 C 454.07 409.71 455.85 444.89 455.56 480.00 C 455.43 492.00 455.90 504.03 454.69 515.99 C 454.38 547.54 450.74 578.92 447.03 610.22 C 445.67 623.42 443.17 636.45 441.20 649.56 C 436.69 673.87 431.63 698.11 424.61 721.83 C 422.65 728.80 418.35 734.71 414.81 740.93 C 412.43 745.43 408.64 749.69 403.24 750.16 C 396.84 752.23 391.03 747.41 387.80 742.34 C 385.25 738.21 382.62 734.13 380.26 729.90 C 376.90 723.31 375.27 716.03 373.27 708.96 C 366.74 685.53 361.49 661.73 357.58 637.71 C 355.31 626.46 354.03 615.06 352.57 603.69 C 348.40 575.64 346.14 547.34 344.53 519.05 C 344.73 509.67 343.25 500.37 343.47 491.00 C 343.55 469.66 342.77 448.28 344.34 426.98 C 344.44 423.70 344.44 420.41 344.62 417.13 C 346.19 399.81 347.21 382.40 350.57 365.30 C 352.48 355.26 354.26 345.15 357.56 335.45 C 360.99 324.92 364.22 313.88 371.04 304.97 C 367.77 312.76 363.92 320.31 361.17 328.31 C 356.67 340.56 354.72 353.52 351.97 366.22 C 348.76 385.03 347.09 404.07 345.92 423.10 C 344.28 447.55 344.05 472.13 345.38 496.60 C 345.35 509.02 346.40 521.39 346.92 533.78 C 351.43 595.70 360.04 657.60 377.31 717.34 C 379.54 725.53 384.05 732.78 388.07 740.18 C 390.67 744.98 395.61 748.48 401.02 749.31 C 406.59 748.50 410.76 744.06 413.58 739.48 C 417.41 733.01 421.30 726.47 423.49 719.23 C 426.22 710.34 428.26 701.27 430.56 692.27 C 444.09 634.81 450.60 575.89 453.42 517.00 C 453.75 492.34 453.78 467.67 453.54 443.01 C 451.60 405.64 448.33 367.94 437.13 332.04 C 434.03 322.92 429.99 314.13 425.32 305.71 C 422.16 300.11 418.49 294.59 413.31 290.66 C 409.10 287.40 403.99 285.69 399.02 283.98 C 395.71 282.78 392.22 284.06 389.02 284.97 Z" />
<path fill="#ff7979" opacity="1.00" d=" M 811.01 287.97 C 814.07 286.33 817.70 284.45 821.20 285.90 C 826.52 287.97 832.27 289.50 836.63 293.39 C 842.24 297.93 846.05 304.17 849.52 310.39 C 860.90 330.29 866.43 352.88 870.41 375.28 C 873.77 397.36 876.13 419.65 876.71 441.99 C 878.14 461.29 877.38 480.67 877.51 500.01 C 877.79 510.03 876.19 519.98 876.52 530.01 C 875.23 562.09 871.44 594.00 867.45 625.84 C 862.33 659.71 855.97 693.49 846.11 726.33 C 843.78 733.39 839.28 739.41 835.65 745.82 C 833.35 750.00 829.18 752.96 824.36 753.32 C 819.24 754.72 814.49 751.37 811.44 747.57 C 808.74 744.17 806.80 740.26 804.43 736.65 C 799.22 728.75 797.40 719.31 794.84 710.35 C 786.84 681.87 781.25 652.77 776.72 623.56 C 774.98 608.38 772.40 593.30 770.98 578.09 C 768.97 559.46 767.55 540.76 766.53 522.05 C 766.73 512.68 765.24 503.38 765.47 494.00 C 765.58 473.00 764.72 451.95 766.35 431.00 C 766.48 416.66 768.23 402.40 769.56 388.13 C 772.18 367.71 775.92 347.30 783.00 327.91 C 785.78 321.05 788.23 313.79 793.01 308.01 C 789.51 316.26 785.44 324.27 782.65 332.81 C 779.07 342.75 777.36 353.20 775.13 363.49 C 772.64 374.74 771.46 386.21 770.19 397.64 C 766.96 427.98 765.99 458.51 766.83 489.00 C 767.48 496.31 767.38 503.66 767.55 511.00 C 770.58 575.09 778.25 639.22 794.16 701.48 C 796.42 709.79 798.39 718.21 801.43 726.29 C 803.76 732.18 807.04 737.63 810.07 743.18 C 812.68 747.98 817.61 751.48 823.02 752.31 C 828.06 751.59 832.03 747.80 834.76 743.73 C 839.75 735.80 844.37 727.48 846.66 718.32 C 862.33 661.09 870.28 601.98 874.11 542.85 C 876.07 519.62 875.54 496.29 875.71 473.00 C 875.59 462.66 875.71 452.31 875.41 441.97 C 873.98 422.16 872.86 402.29 869.80 382.64 C 868.41 372.11 865.95 361.77 863.75 351.39 C 861.10 338.84 856.31 326.83 850.80 315.28 C 845.78 305.33 839.85 294.50 829.02 289.99 C 824.59 288.44 820.05 285.51 815.19 286.85 C 813.77 287.15 812.38 287.53 811.01 287.97 Z" />
<path fill="#ff7979" opacity="1.00" d=" M 527.95 815.96 C 535.47 808.14 547.21 804.33 557.76 807.46 C 565.85 809.45 571.62 816.01 576.71 822.18 C 582.84 831.58 585.30 842.92 586.29 853.97 C 586.89 864.43 585.69 875.28 581.18 884.86 C 571.39 882.60 562.09 878.68 552.61 875.43 C 551.55 872.05 550.28 868.60 550.65 865.00 C 551.49 857.00 552.50 849.01 553.40 841.01 C 553.56 838.26 553.60 834.48 550.60 833.21 C 548.00 831.65 545.10 833.97 544.23 836.44 C 539.81 846.75 538.09 857.92 536.57 868.96 C 526.75 865.39 517.50 860.43 508.27 855.58 C 509.93 840.66 516.64 826.03 527.95 815.96 Z" />
</g>
<g id="#751010ff">
<path fill="#751010" opacity="1.00" d=" M 389.02 284.97 C 392.22 284.06 395.71 282.78 399.02 283.98 C 403.99 285.69 409.10 287.40 413.31 290.66 C 418.49 294.59 422.16 300.11 425.32 305.71 C 429.99 314.13 434.03 322.92 437.13 332.04 C 448.33 367.94 451.60 405.64 453.54 443.01 C 453.78 467.67 453.75 492.34 453.42 517.00 C 450.60 575.89 444.09 634.81 430.56 692.27 C 428.26 701.27 426.22 710.34 423.49 719.23 C 421.30 726.47 417.41 733.01 413.58 739.48 C 410.76 744.06 406.59 748.50 401.02 749.31 C 395.61 748.48 390.67 744.98 388.07 740.18 C 384.05 732.78 379.54 725.53 377.31 717.34 C 360.04 657.60 351.43 595.70 346.92 533.78 C 346.40 521.39 345.35 509.02 345.38 496.60 C 344.05 472.13 344.28 447.55 345.92 423.10 C 347.09 404.07 348.76 385.03 351.97 366.22 C 354.72 353.52 356.67 340.56 361.17 328.31 C 363.92 320.31 367.77 312.76 371.04 304.97 C 375.04 296.87 380.89 289.23 389.02 284.97 Z" />
<path fill="#751010" opacity="1.00" d=" M 815.19 286.85 C 820.05 285.51 824.59 288.44 829.02 289.99 C 839.85 294.50 845.78 305.33 850.80 315.28 C 856.31 326.83 861.10 338.84 863.75 351.39 C 865.95 361.77 868.41 372.11 869.80 382.64 C 872.86 402.29 873.98 422.16 875.41 441.97 C 875.71 452.31 875.59 462.66 875.71 473.00 C 875.54 496.29 876.07 519.62 874.11 542.85 C 870.28 601.98 862.33 661.09 846.66 718.32 C 844.37 727.48 839.75 735.80 834.76 743.73 C 832.03 747.80 828.06 751.59 823.02 752.31 C 817.61 751.48 812.68 747.98 810.07 743.18 C 807.04 737.63 803.76 732.18 801.43 726.29 C 798.39 718.21 796.42 709.79 794.16 701.48 C 778.25 639.22 770.58 575.09 767.55 511.00 C 767.38 503.66 767.48 496.31 766.83 489.00 C 765.99 458.51 766.96 427.98 770.19 397.64 C 771.46 386.21 772.64 374.74 775.13 363.49 C 777.36 353.20 779.07 342.75 782.65 332.81 C 785.44 324.27 789.51 316.26 793.01 308.01 C 796.93 299.84 802.91 292.28 811.01 287.97 C 812.38 287.53 813.77 287.15 815.19 286.85 Z" />
<path fill="#751010" opacity="1.00" d=" M 498.48 793.47 C 509.36 781.86 524.05 773.47 539.98 771.57 C 547.11 771.28 554.41 770.87 561.39 772.71 C 576.69 776.29 590.15 785.95 599.71 798.27 C 610.46 812.74 617.51 830.02 619.49 847.97 C 619.90 854.97 619.80 861.98 619.56 868.99 C 619.22 877.57 616.39 885.77 615.25 894.24 C 625.49 895.70 635.65 897.89 645.99 898.51 C 654.67 898.88 663.36 898.48 672.05 898.39 C 681.67 898.15 691.21 907.03 689.84 916.99 C 690.56 923.09 687.16 928.87 682.12 932.09 C 677.75 935.26 672.21 935.81 667.01 936.36 C 642.20 937.53 617.49 933.53 593.44 927.72 C 567.20 921.32 541.50 912.55 517.08 900.98 C 506.54 895.82 496.14 890.28 486.55 883.49 C 482.05 880.58 477.02 877.64 474.93 872.41 C 471.14 863.15 472.64 852.92 473.95 843.31 C 477.33 824.89 485.49 807.10 498.48 793.47 M 527.95 815.96 C 516.64 826.03 509.93 840.66 508.27 855.58 C 517.50 860.43 526.75 865.39 536.57 868.96 C 538.09 857.92 539.81 846.75 544.23 836.44 C 545.10 833.97 548.00 831.65 550.60 833.21 C 553.60 834.48 553.56 838.26 553.40 841.01 C 552.50 849.01 551.49 857.00 550.65 865.00 C 550.28 868.60 551.55 872.05 552.61 875.43 C 562.09 878.68 571.39 882.60 581.18 884.86 C 585.69 875.28 586.89 864.43 586.29 853.97 C 585.30 842.92 582.84 831.58 576.71 822.18 C 571.62 816.01 565.85 809.45 557.76 807.46 C 547.21 804.33 535.47 808.14 527.95 815.96 Z" />
</g>
<g id="#f9c0c3ff">
<path fill="#f9c0c3" opacity="1.00" d=" M 0.00 562.94 C 45.47 554.15 93.57 559.40 136.01 577.99 C 181.71 597.64 220.46 632.79 244.89 676.08 C 253.39 691.76 260.92 708.09 265.67 725.33 C 270.32 741.04 272.96 757.28 274.45 773.57 C 277.37 813.80 269.26 854.61 251.96 891.00 C 231.51 933.25 197.77 968.78 156.98 991.93 C 141.46 1000.22 125.28 1007.41 108.35 1012.29 C 92.24 1016.68 75.75 1020.13 59.04 1020.98 C 39.32 1021.46 19.31 1021.72 0.00 1017.10 L 0.00 562.94 Z" />
<path fill="#f9c0c3" opacity="1.00" d=" M 1077.07 577.07 C 1098.41 573.21 1120.28 570.71 1141.93 573.23 C 1161.73 574.67 1181.13 579.27 1200.00 585.33 L 1200.00 1021.80 C 1189.39 1026.14 1178.11 1028.58 1166.93 1030.93 C 1146.77 1035.11 1126.07 1035.77 1105.58 1034.48 C 1068.34 1031.70 1031.92 1019.53 1000.28 999.73 C 972.88 982.61 949.27 959.55 931.18 932.81 C 911.82 903.79 898.82 870.44 894.23 835.82 C 891.83 816.09 890.34 796.06 893.32 776.30 C 900.60 713.02 935.68 653.54 987.45 616.47 C 1014.09 597.19 1044.87 583.69 1077.07 577.07 Z" />
</g>
</svg>
